<svg xmlns="http://www.w3.org/2000/svg" width="500" height="80" viewBox="0 0 500 80"><rect width="500" height="80" fill="#fff" opacity="0"/><g transform="translate(-578 -2356.837)"><g transform="translate(624 2356.837)"><g fill="#fff" stroke="#d8d8d8" stroke-width="1"><circle cx="22" cy="22" r="22" stroke="none"/><circle cx="22" cy="22" r="21.5" fill="none"/></g><path d="M11.334,21.281c0-1.046,3.516-4.049,6.74-4.043,2.369,0,4.6,2.463,4.6,5.358,0,6.536-11.334,13.712-11.334,13.712S0,29.131,0,22.6a5.22,5.22,0,0,1,5.028-5.354C7.98,17.3,11.334,20.259,11.334,21.281Z" transform="translate(11 -2.815)" fill="#ff6d6d"/></g></g><g transform="translate(-624 -2577.837)"><g transform="translate(624 2577.837)" fill="#fff" stroke="#d8d8d8" stroke-width="1"><circle cx="22" cy="22" r="22" stroke="none"/><circle cx="22" cy="22" r="21.5" fill="none"/></g><path d="M11.334,21.281c0-1.046,3.516-4.049,6.74-4.043,2.369,0,4.6,2.463,4.6,5.358,0,6.536-11.334,13.712-11.334,13.712S0,29.131,0,22.6a5.22,5.22,0,0,1,5.028-5.354C7.98,17.3,11.334,20.259,11.334,21.281Z" transform="translate(635 2575.021)" fill="#c8c8c8"/></g></svg>