<svg xmlns="http://www.w3.org/2000/svg" xmlns:xlink="http://www.w3.org/1999/xlink" width="285" height="285" viewBox="0 0 285 285">
  <defs>
    <clipPath id="clip-path">
      <rect id="사각형_71127" data-name="사각형 71127" width="232" height="227.625" fill="none"/>
    </clipPath>
  </defs>
  <g id="그룹_73485" data-name="그룹 73485" transform="translate(-218 -571)">
    <circle id="타원_1779" data-name="타원 1779" cx="142.5" cy="142.5" r="142.5" transform="translate(218 571)" fill="#fff"/>
    <g id="그룹_73484" data-name="그룹 73484" transform="translate(244 583.621)">
      <g id="그룹_73483" data-name="그룹 73483" transform="translate(0 0)" clip-path="url(#clip-path)">
        <path id="패스_82488" data-name="패스 82488" d="M59.4,101.976A54.7,54.7,0,0,1,36.914,58.038c0-30.62,25.664-55.426,57.317-55.426s57.322,24.806,57.322,55.426-25.661,55.415-57.322,55.415a59.2,59.2,0,0,1-17.154-2.527c-7.76,9.857-27.356,5.434-27.356,5.434,7.262-1.724,9.181-9.872,9.679-14.383" transform="translate(67.559 4.781)" fill="#ff6d6d"/>
        <path id="패스_82489" data-name="패스 82489" d="M60.917,120.844a51.808,51.808,0,0,1-10.29-1.039,2.122,2.122,0,0,1-.023-4.135c5.42-1.288,7.274-7.237,7.9-11.374A56.456,56.456,0,0,1,36.164,59.41c0-31.735,26.666-57.549,59.442-57.549s59.445,25.814,59.445,57.549-26.669,57.537-59.445,57.537a61.475,61.475,0,0,1-16.449-2.233c-3.852,4.019-10.118,6.13-18.24,6.13m-3.342-4.367c1.039.071,2.168.122,3.342.122,5.219,0,12.212-.974,15.866-5.615a2.119,2.119,0,0,1,2.284-.719A56.933,56.933,0,0,0,95.606,112.7c30.433,0,55.2-23.906,55.2-53.292s-24.767-53.3-55.2-53.3-55.2,23.909-55.2,53.3a52.344,52.344,0,0,0,21.628,42.237,2.119,2.119,0,0,1,.843,1.933c-.4,3.665-1.63,9.226-5.307,12.9" transform="translate(66.186 3.407)" fill="#211449"/>
        <path id="패스_82490" data-name="패스 82490" d="M113.8,172.509c-16.223-1.322-35.023-13.681-60.738-39.39C29.834,109.9,16.424,89.223,9.623,71.871,5.661,59.025,1.555,49.437,10.8,40.176L31.968,19.018l37.423,37.42-6.923,6.917c-12.028,12.023-8.638,34.9,7.579,51.113l4.893,4.888c16.189,16.206,39.068,19.59,51.1,7.576l6.92-6.925L162.7,147.485l-22.3,20.79c-10.208,6.241-15.453,6.059-26.592,4.234" transform="translate(9.517 34.807)" fill="#a4dfff"/>
        <path id="패스_82491" data-name="패스 82491" d="M125.455,187.88a41.581,41.581,0,0,1-6.7-.546c-17.134-1.392-44.8-18.789-70.321-44.295C25.688,120.3,9.036,95.325,4.972,77.863.63,63.789,3.712,49.6,13.25,40.055L34.417,18.888a2.12,2.12,0,0,1,3,0L74.84,56.317a2.118,2.118,0,0,1,0,3l-6.92,6.917c-5.332,5.326-7.537,13.2-6.207,22.172,1.367,9.207,6.26,18.419,13.783,25.936l4.893,4.891c8.85,8.856,20.391,14.145,30.874,14.145,6.965,0,12.92-2.27,17.227-6.572l6.92-6.92a2.188,2.188,0,0,1,3,0l33.639,33.642a2.118,2.118,0,0,1,0,3l-21.164,21.155a35.552,35.552,0,0,1-25.435,10.2M35.917,23.394,16.253,43.055C7.847,51.469,5.161,64.066,9.07,76.759,13,93.633,29.22,117.825,51.434,140.039c24.467,24.455,51.73,41.768,67.833,43.084a38.837,38.837,0,0,0,6.187.512,31.35,31.35,0,0,0,22.432-8.952l19.667-19.653-30.639-30.645-5.423,5.423c-5.12,5.111-12.113,7.814-20.227,7.814-11.757,0-24.107-5.609-33.877-15.388L72.5,117.341c-8.165-8.157-13.483-18.212-14.98-28.313-1.531-10.336,1.1-19.5,7.4-25.8l5.42-5.417Z" transform="translate(5.568 33.431)" fill="#211449"/>
        <rect id="사각형_71125" data-name="사각형 71125" width="2.83" height="43.734" transform="translate(31.699 64.641) rotate(-45.655)" fill="#ff6d6d"/>
        <rect id="사각형_71126" data-name="사각형 71126" width="2.83" height="39.854" transform="matrix(0.701, -0.714, 0.714, 0.701, 132.723, 165.49)" fill="#ff6d6d"/>
        <path id="패스_82492" data-name="패스 82492" d="M107.909,80.62a2.193,2.193,0,0,1-.427-.045,2.119,2.119,0,0,1-1.653-2.5C117.557,20.878,67.622,4.3,67.115,4.146A2.124,2.124,0,0,1,68.4.1c.541.173,54.07,17.932,41.581,78.823a2.119,2.119,0,0,1-2.075,1.7" transform="translate(120.126 0.001)" fill="#211449"/>
        <path id="패스_82493" data-name="패스 82493" d="M77.857,46.485a2.121,2.121,0,0,1-1.429-3.693c2.782-2.53,5.723-8.674,6.617-10.828a2.123,2.123,0,0,1,3.92,1.63c-.147.351-3.631,8.66-7.678,12.34a2.111,2.111,0,0,1-1.429.552" transform="translate(138.605 56.109)" fill="#211449"/>
        <path id="패스_82494" data-name="패스 82494" d="M.75,109.823l8.938-8.694,7.121-6.923s.4-.436.32-.413c0,0-2.8-22.112,7.956-33.863,0,0,3.028,4.449,5,7.2L33.054,71l30.5-27.328L95.985,86.05l4.766-4.639a6.783,6.783,0,0,1,10.259.708,7.825,7.825,0,0,1-.359,11.055L86.136,117.032l-2.5,2.414-1.95,1.709s-4.458,4.234-16.423,8.44c0,0-6.467,2.052-10.735,3.014l-6.524,6.351-6.792,6.611" transform="translate(1.373 79.932)" fill="#fff"/>
        <path id="패스_82495" data-name="패스 82495" d="M42.585,149.068a2.123,2.123,0,0,1-1.48-3.642l13.316-12.962a2.12,2.12,0,0,1,1.013-.549c4.132-.934,10.5-2.946,10.562-2.966,11.207-3.94,15.566-7.927,15.608-7.967l2.007-1.758,26.932-26.2a5.708,5.708,0,0,0,.32-8.052,2.289,2.289,0,0,1-.2-.243,4.492,4.492,0,0,0-3.269-1.82,4.837,4.837,0,0,0-3.787,1.392L98.84,88.944a2.179,2.179,0,0,1-1.636.6,2.134,2.134,0,0,1-1.531-.829L64.635,48.161l-28.794,25.8a2.134,2.134,0,0,1-1.61.535,2.109,2.109,0,0,1-1.486-.824L29.77,69.8c-1.064-1.486-2.414-3.43-3.453-4.936-7.466,10.585-5.966,27.594-5.737,29.8a2.613,2.613,0,0,1-.835,2.349L3.605,112.72a2.123,2.123,0,1,1-2.963-3.042L16.29,94.457c-.422-4.562-1.5-23.55,8.6-34.587a2.126,2.126,0,0,1,3.323.241s3.011,4.424,4.97,7.16l1.537,2,28.8-25.805a2.065,2.065,0,0,1,1.613-.529,2.124,2.124,0,0,1,1.486.824L97.592,84.235l3.051-2.972a9.064,9.064,0,0,1,7.118-2.578,8.728,8.728,0,0,1,6.249,3.439,9.962,9.962,0,0,1-.5,13.944L84.457,124.126c-.13.127-4.862,4.54-17.117,8.85-.317.1-6.113,1.93-10.384,2.943L44.068,148.468a2.123,2.123,0,0,1-1.483.6" transform="translate(0 78.557)" fill="#211449"/>
        <path id="패스_82496" data-name="패스 82496" d="M24.887,58.088l9.634-9.365A9.027,9.027,0,0,1,47.109,61.66l-8.68,8.44" transform="translate(45.547 84.627)" fill="#fff"/>
        <path id="패스_82497" data-name="패스 82497" d="M39.8,73.59a2.123,2.123,0,0,1-1.48-3.642L47,61.5a6.9,6.9,0,0,0-9.623-9.891l-9.64,9.368a2.122,2.122,0,0,1-2.958-3.042l9.637-9.368A11.148,11.148,0,0,1,49.961,64.547L41.284,72.99a2.123,2.123,0,0,1-1.483.6" transform="translate(44.175 83.259)" fill="#211449"/>
        <path id="패스_82498" data-name="패스 82498" d="M28.65,64.225l11-10.7A8.77,8.77,0,1,1,51.877,66.092L41.7,75.992" transform="translate(52.434 93.32)" fill="#fff"/>
        <path id="패스_82499" data-name="패스 82499" d="M43.074,79.481a2.124,2.124,0,0,1-1.48-3.645l10.174-9.9A6.744,6.744,0,0,0,53.832,61.2a6.562,6.562,0,0,0-1.862-4.735A6.709,6.709,0,0,0,42.5,56.41L31.5,67.111a2.123,2.123,0,0,1-2.963-3.042l11-10.7a10.967,10.967,0,0,1,15.473.139,10.778,10.778,0,0,1,3.065,7.777,10.959,10.959,0,0,1-3.345,7.7l-10.174,9.9a2.119,2.119,0,0,1-1.48.6" transform="translate(51.063 91.954)" fill="#211449"/>
        <path id="패스_82500" data-name="패스 82500" d="M12.164,74.63,45.512,44.2A8.861,8.861,0,1,1,57.871,56.9L47.419,67.08" transform="translate(22.262 76.303)" fill="#fff"/>
        <path id="패스_82501" data-name="패스 82501" d="M13.536,78.126A2.123,2.123,0,0,1,12.1,74.436l33.348-30.43A10.985,10.985,0,0,1,60.724,59.8L50.272,69.975a2.123,2.123,0,0,1-2.96-3.042L57.763,56.756a6.739,6.739,0,1,0-9.4-9.659l-33.4,30.478a2.123,2.123,0,0,1-1.432.552" transform="translate(20.89 74.93)" fill="#211449"/>
        <path id="패스_82502" data-name="패스 82502" d="M93.04,28.965h-13.7v-13.7H63.631v13.7h-13.7v15.7h13.7v13.7h15.71V44.67h13.7Z" transform="translate(91.391 27.943)" fill="#fff"/>
      </g>
    </g>
  </g>
</svg>
