<svg xmlns="http://www.w3.org/2000/svg" width="74" height="80" viewBox="0 0 74 80">
  <g id="그룹_71797" data-name="그룹 71797" transform="translate(-83 -1866)">
    <g id="그룹_108" data-name="그룹 108" transform="translate(2496.873 535.56)">
      <line id="선_20" data-name="선 20" y2="9.024" transform="translate(-2368.275 1387.837)" fill="none" stroke="#fff" stroke-linecap="round" stroke-linejoin="round" stroke-width="3"/>
      <path id="패스_670" data-name="패스 670" d="M59.481,669.692l3.646-.83v-49.3l-20.4,4.948v18.081" transform="translate(-2411 722.895)" fill="none" stroke="#fff" stroke-linecap="round" stroke-linejoin="round" stroke-width="3"/>
      <path id="패스_671" data-name="패스 671" d="M42.725,624.466l-20.432-6.921L2.127,624.466v49.5l20.166-6.9,20.432,6.9,10.693-2.744" transform="translate(-2411 722.895)" fill="none" stroke="#fff" stroke-linecap="round" stroke-linejoin="round" stroke-width="3"/>
      <path id="패스_672" data-name="패스 672" d="M47.9,646.731a11.934,11.934,0,1,1-16.877,0A11.935,11.935,0,0,1,47.9,646.731Z" transform="translate(-2411 721)" fill="none" stroke="#fff" stroke-linecap="round" stroke-linejoin="round" stroke-width="3"/>
      <path id="패스_673" data-name="패스 673" d="M47.048,652.626a8.04,8.04,0,0,1,.073,4.858" transform="translate(-2411 721)" fill="none" stroke="#fff" stroke-linecap="round" stroke-linejoin="round" stroke-width="3"/>
      <path id="패스_674" data-name="패스 674" d="M33.8,649.513a8,8,0,0,1,11.314,0" transform="translate(-2411 721)" fill="none" stroke="#fff" stroke-linecap="round" stroke-linejoin="round" stroke-width="3"/>
      <line id="선_21" data-name="선 21" x2="2.432" y2="2.432" transform="translate(-2363.101 1384.608)" fill="none" stroke="#fff" stroke-linecap="round" stroke-linejoin="round" stroke-width="3"/>
      <rect id="사각형_65" data-name="사각형 65" width="4.833" height="15.814" transform="matrix(0.707, -0.707, 0.707, 0.707, -2362.206, 1388.919)" fill="none" stroke="#fff" stroke-linecap="round" stroke-linejoin="round" stroke-width="3"/>
      <line id="선_22" data-name="선 22" y2="49.285" transform="translate(-2388.707 1340.44)" fill="none" stroke="#fff" stroke-linecap="round" stroke-linejoin="round" stroke-width="3"/>
    </g>
    <rect id="사각형_70540" data-name="사각형 70540" width="74" height="80" transform="translate(83 1866)" fill="none"/>
  </g>
</svg>
