<svg xmlns="http://www.w3.org/2000/svg" width="428.827" height="197.383" viewBox="0 0 428.827 197.383">
  <g id="그룹_71778" data-name="그룹 71778" transform="translate(-221.173 -349.617)">
    <path id="패스_70518" data-name="패스 70518" d="M6133.828,4601.583s174.093-7.362,169.629,26.994-86.3,14.724-99.694,41.719-84.815,20.859-132.43,23.313-119.037-25.767-87.791-56.443S6133.828,4601.583,6133.828,4601.583Z" transform="translate(6524.714 5043.375) rotate(-180)" fill="#e5f2fb"/>
    <g id="그룹_71475" data-name="그룹 71475" transform="translate(-5393.488 -5153.19)">
      <path id="패스_69968" data-name="패스 69968" d="M462.93,348.337c-5.418,3.881-8.81,11.469-5.786,17.409,2.185,4.294,6.937,6.55,11.433,8.281a150.8,150.8,0,0,0,84.108,6.909c12.058-2.489,24.615-6.46,36.385-2.846,4.817,1.479,9.161,4.153,13.656,6.431a90.529,90.529,0,0,0,68.615,5.1c3.078-1.023,6.2-2.272,8.5-4.557s3.612-5.846,2.42-8.864a278.347,278.347,0,0,0,86.384.478c3.359-.5,6.788-2.17,8.524-5.09,2.413-4.059.236-9.36-2.855-12.929-6.83-7.884-17.48-11.414-27.839-12.638s-20.866-.49-31.239-1.578c-12.3-1.291-24.178-5.113-36.284-7.649-21.269-4.454-43.152-4.915-64.883-4.99q-49.479-.169-98.923,2.227c-10.253.5-21.059.992-30.5,5.413-6.941,3.249-15.478,4.432-21.712,8.9" transform="translate(5265.289 5306.099)" fill="#d8d8d8"/>
      <path id="패스_69969" data-name="패스 69969" d="M519.169,263.1c-.211-.141-.406-.227-.61-.34-1.243-2.13-3.4-3.237-6.676-1.559-.16.081-.3.19-.45.28-1.143-5.7-3.593-10.2-8.725-9.739-6.452.582-6.973,9.165-5.472,16.512a5.907,5.907,0,0,0-3.865,2.235c-2.934,3.755-.566,9.017,3,11.88a8.967,8.967,0,0,0-3.129.969,8.147,8.147,0,0,0-4.068,9.869,11.631,11.631,0,0,0,2.3,3.71,9.1,9.1,0,0,0-2.509,3.383,8.992,8.992,0,0,0-2.6.275c-3.146.833-5.639,4.329-4.293,7.549,2.028,4.856,11.277,4.334,14.892,1.736,1.369-.984,7.869-9.359,7.81-9.722.393-.4,22.937-31.332,14.4-37.037" transform="translate(5268.513 5296.045)" fill="#3c917a"/>
      <path id="패스_69970" data-name="패스 69970" d="M671.443,260.163a9.332,9.332,0,0,0-8.881-.666c-.71-2.252-2.46-3.883-5.815-3.964-5.567-.134-8.976,13.953-8.681,14.121a38.556,38.556,0,0,0,4.556,6.979,27.421,27.421,0,0,1,3.341,3.911c2.573,3.561,8.329.579,6.789-2.974,3.566-.9,6.9-2.754,8.292-5.218a3.606,3.606,0,0,0,.473-1.763c2.941-3.041,4.262-7.624-.074-10.427" transform="translate(5289.398 5296.525)" fill="#3c917a"/>
      <path id="패스_69971" data-name="패스 69971" d="M703.078,337.092c.032-.035.068-.064.1-.1,3.8-4.233,1.979-8.718-1.854-10.706a19.666,19.666,0,0,0,1.641-5.833c.651-5,.173-13.1-6.127-14.273-4.006-.742-7.348,1.975-9.824,5.981-.5-3.248-1.76-5.858-5.157-6.185-.12-.012-.214,0-.33,0,.541-1.377.444-3.088-.687-5.209a7.68,7.68,0,0,0-2.042-2.413c1.988-3.809.808-9.144-4.433-8.888a12.156,12.156,0,0,0-4.346,1.248c.547-4.161-.277-8.456-4.737-9.482a5.931,5.931,0,0,0-1.328-.14,6.628,6.628,0,0,0-.866-.49c-6.714-3.149-10.928,5.019-8.9,10.5,1.274,3.441,20.485,56.293,24.144,58.328,9.509,5.288,19.274,1.517,25.953-6.4a3.694,3.694,0,0,0-1.208-5.939" transform="translate(5290.104 5299.584)" fill="#3c917a"/>
      <path id="패스_69972" data-name="패스 69972" d="M524.236,243.427a543.814,543.814,0,0,1,130.283,6.984c21.664,34.633,40.51,72.3,51.63,111.544-42.64,1.487-80.834,6-123.474,7.486-18.867-40.9-37.895-87.608-58.438-126.014" transform="translate(5273.854 5294.857)" fill="#df7548"/>
      <path id="패스_69973" data-name="패스 69973" d="M530.923,243.295c-22.671,36.66-59.955,122.872-59.955,122.872,37.9,1.083,80.49,2.06,118.394,3.141,2.687.078-36.285-83.964-58.438-126.014" transform="translate(5267.167 5294.989)" fill="#ff956a"/>
      <path id="패스_69974" data-name="패스 69974" d="M571.579,359.219c-16.493-33.82-29.858-64.354-43.84-97.742-16.477,29.046-30.851,57.358-42.5,89.016-.726,1.972-1.245,4.691.406,5.81,27.391.762,56.412,2.467,83.8,3.228,1.94.054,1.415-2.267,2.133-.312" transform="translate(5268.871 5297.271)" fill="#3b374c"/>
      <path id="패스_69975" data-name="패스 69975" d="M525.79,259.692c.023.165-20.718,40.329-28.469,57.78,3.138-.158,6.084-2.06,8.606-3.964,3.082-2.329,7.164-9.27,9.217-12.531a74.261,74.261,0,0,0,11.1-33.568q.447,8.077,1.492,16.107c.949,7.279,2.306,14.635,5.661,21.176s5.624,10.983,12.742,12.965c-5.111,12.811-1.374,28.9,4.2,41.5,5.881.226,14.442.954,20.208,1.114,0,0-44.713-100.667-44.762-100.582" transform="translate(5270.475 5297.047)" fill="#df7548"/>
      <path id="패스_69976" data-name="패스 69976" d="M504.5,351.288a65.453,65.453,0,0,0,1.11-36.506c-.714-2.738-1.665-7.056-4.214-8.264-5.416,12.217-11.375,25.733-16.009,38.319-.726,1.973-2.089,5.9-2.089,5.9,6.162.171,14.911.3,21.2.549" transform="translate(5268.715 5302.926)" fill="#df7548"/>
      <path id="패스_69977" data-name="패스 69977" d="M524.524,243.584s8.022,15.862,11.11,22.168c3.1,6.335,5.362,8.9,8.8,15.056,6.539,11.719,13.2,23.385,20.09,34.9,12.406,20.753,26.06,43.981,45.731,58.69.683.511,1.344-.638.669-1.144-10.7-8-18.983-18.755-26.7-29.54s-14.679-22.037-21.388-33.447c-6.676-11.357-13.262-22.789-19.592-34.343-3.234-5.9-5.089-9.236-7.965-15.322-2.527-5.347-9.822-17.96-9.822-17.96-.538-.662-1.47.28-.936.936" transform="translate(5273.87 5294.879)" fill="#d46330"/>
      <path id="패스_69978" data-name="패스 69978" d="M639.117,250.645c4.829,9.1,11.528,17.007,16.228,26.183,5.057,9.876,10.015,19.762,15.421,29.458q8,14.344,16.193,28.583c4.871,8.482,10.084,16.7,17.284,23.41.624.581,1.562-.353.938-.936-7.547-7.034-12.856-15.742-17.928-24.629-5.463-9.574-10.935-19.148-16.284-28.787-5.072-9.141-9.718-18.467-14.48-27.767-4.7-9.177-11.4-17.088-16.228-26.184-.4-.753-1.543-.084-1.144.669" transform="translate(5288.266 5295.786)" fill="#d68f2f"/>
      <path id="패스_69979" data-name="패스 69979" d="M533.329,242.774c-13.97,20.031-23.113,43.013-36.018,63.729-6.178,9.918-12.766,19.584-19.551,29.1-6.813,9.552-14.186,19.167-24.06,25.746-.706.47-.043,1.617.669,1.144,8.7-5.8,15.466-13.9,21.644-22.236,7.17-9.676,13.957-19.695,20.414-29.858,13.772-21.681,23.356-45.892,38.046-66.953.489-.7-.658-1.363-1.144-.669" transform="translate(5264.961 5294.887)" fill="#d46330"/>
      <path id="패스_69980" data-name="패스 69980" d="M602.052,357.213a2.959,2.959,0,0,1-1.931-.908,2.9,2.9,0,0,1-.766-2.046l0-.118a2.93,2.93,0,0,1,.9-1.971,2.872,2.872,0,0,1,4.84,2.18l0,.119a2.93,2.93,0,0,1-.9,1.971,2.88,2.88,0,0,1-2.053.774h-.089m.319-4.867h-.05a2,2,0,0,0-1.38.493,2.027,2.027,0,0,0-.626,1.337l0,.118a1.958,1.958,0,0,0,.511,1.364,1.923,1.923,0,0,0,2.69.114,2.019,2.019,0,0,0,.626-1.337l0-.119a1.963,1.963,0,0,0-.511-1.364,2,2,0,0,0-1.262-.6" transform="translate(5283.284 5308.56)" fill="#7f7d8c"/>
      <path id="패스_69981" data-name="패스 69981" d="M601.3,356.607l-.168,4.512a.6.6,0,0,0,1.2.044l.168-4.512a.6.6,0,0,0-1.2-.044" transform="translate(5283.507 5309.145)" fill="#7f7d8c"/>
      <path id="패스_69982" data-name="패스 69982" d="M697.683,344.9a2.959,2.959,0,0,1-1.931-.908,2.9,2.9,0,0,1-.767-2.046l0-.118a2.93,2.93,0,0,1,.9-1.971,2.872,2.872,0,0,1,4.84,2.18l0,.119a2.933,2.933,0,0,1-.9,1.971,2.885,2.885,0,0,1-2.054.774c-.029,0-.06,0-.089,0m.318-4.867h-.049a2,2,0,0,0-1.38.493,2.028,2.028,0,0,0-.626,1.337l0,.118a1.962,1.962,0,0,0,.51,1.364,1.922,1.922,0,0,0,2.691.114,2.017,2.017,0,0,0,.626-1.337l0-.119a1.962,1.962,0,0,0-.511-1.364,2,2,0,0,0-1.262-.6" transform="translate(5295.29 5307.015)" fill="#7f7d8c"/>
      <path id="패스_69983" data-name="패스 69983" d="M696.929,344.3l-.167,4.513a.6.6,0,0,0,1.2.043l.168-4.512a.6.6,0,0,0-1.2-.044" transform="translate(5295.513 5307.6)" fill="#7f7d8c"/>
      <path id="패스_69984" data-name="패스 69984" d="M454.436,346.545a2.958,2.958,0,0,1-1.931-.908,2.9,2.9,0,0,1-.767-2.046l0-.118a2.929,2.929,0,0,1,.9-1.971,2.872,2.872,0,0,1,4.84,2.18l0,.119a2.933,2.933,0,0,1-.9,1.971,2.885,2.885,0,0,1-2.054.774c-.029,0-.06,0-.089,0m.319-4.867h-.05a2,2,0,0,0-1.38.493,2.027,2.027,0,0,0-.626,1.337l0,.119a1.962,1.962,0,0,0,.51,1.363,1.916,1.916,0,0,0,3.317-1.223l0-.119a1.962,1.962,0,0,0-.511-1.364,2.006,2.006,0,0,0-1.262-.6" transform="translate(5264.752 5307.221)" fill="#7f7d8c"/>
      <path id="패스_69985" data-name="패스 69985" d="M453.683,345.94l-.167,4.512a.6.6,0,0,0,1.2.044l.168-4.512a.6.6,0,0,0-1.2-.044" transform="translate(5264.976 5307.806)" fill="#7f7d8c"/>
      <path id="패스_69986" data-name="패스 69986" d="M710.118,372.435v-22.3s1.724-.992,6.036-1.321a31.424,31.424,0,0,1,6.446,0l-1.1,37.823s-4.137-.165-7.847-5.946-3.536-8.258-3.536-8.258" transform="translate(5297.19 5308.218)" fill="#ffd357"/>
      <path id="패스_69987" data-name="패스 69987" d="M721.988,349.034V387.5a1.023,1.023,0,0,1-2.034,0v-38.47a1.023,1.023,0,0,1,2.034,0" transform="translate(5298.425 5308.149)" fill="#efd9cd"/>
      <path id="패스_69988" data-name="패스 69988" d="M615.856,370.714H639.14s1.034,1.724,1.38,6.036a30.194,30.194,0,0,1,0,6.446l-39.5-1.1s.172-4.138,6.208-7.847,8.624-3.536,8.624-3.536" transform="translate(5283.494 5310.985)" fill="#ffd357"/>
      <path id="패스_69989" data-name="패스 69989" d="M640.562,382.584H600.391a1.019,1.019,0,0,1,0-2.034h40.171a1.019,1.019,0,0,1,0,2.034" transform="translate(5283.295 5312.22)" fill="#efd9cd"/>
      <path id="패스_69990" data-name="패스 69990" d="M682.019,304.1c1.626.633,2.938,2.387,4.04,3.658,2.933,3.384,6.072,6.6,7.963,10.712a47.058,47.058,0,0,1,3.292,12.4,78.92,78.92,0,0,1,.9,11.747c.007,1.031-.213,12.133-.452,12.127,7.976.236,16.276.437,24.24.956h.727l.517,25.531s-45.2-1.433-48.538-2.751a12.963,12.963,0,0,1-7.6-7.167,19.985,19.985,0,0,1-.84-6.758q-.117-12.948-.234-25.894s-23.159,3.892-21.628,2.9c.519-.335-1.177.483-1.531.989a3.253,3.253,0,0,0-.438,1.556L638.662,379.4H612.928c-.493-15.888-2.109-31.349,1.734-46.773a19.274,19.274,0,0,1,3.163-7.451c3.211-4.058,8.759-5.259,13.849-6.194,4.157-.764,8.4-.807,12.555-1.571,8.791-1.615,15.149-1.669,23.218-5.511,3.392-1.615,11.759-5.306,14.572-7.8" transform="translate(5284.893 5302.623)" fill="#474458"/>
      <path id="패스_69991" data-name="패스 69991" d="M622.046,310.866c-.35-.174-.709-.325-1.056-.508a91.5,91.5,0,0,1-12.119,30.372c-1.406,2.241-4.919,2.794-7.434,3.608a39.8,39.8,0,0,0-5.749,1.9,10.664,10.664,0,0,0-5.739,9.054,1.8,1.8,0,0,0,.449,1.463,1.3,1.3,0,0,0,1.639-.177c-.095.446-.16.9-.213,1.342-.087.733-.095,1.638.54,2.015s1.477-.1,1.9-.712a15.171,15.171,0,0,1,1.148-1.913,16.327,16.327,0,0,0-.336,3.868,1.92,1.92,0,0,0,.171.841c.428.795,1.73.618,2.269-.106a4.09,4.09,0,0,0,.51-2.6c-.018,1.18.263,1.874.245,3.055a1.928,1.928,0,0,0,.232,1.169,1.294,1.294,0,0,0,1.875.007,3.1,3.1,0,0,0,.759-1.943,6.564,6.564,0,0,1,.4-2.081c.386-.827.6-.7,1.428-1.081a8.857,8.857,0,0,1,2.661-.6l1.732-.2c4.689-.552,9.921-3.663,13.583-6.541,4.786-3.763,8.51-9.188,11.352-14.25,3.119-5.557,4.983-12.45,7.1-18.532a55.7,55.7,0,0,1-17.347-7.445" transform="translate(5282.104 5303.408)" fill="#ffb498"/>
      <path id="패스_69992" data-name="패스 69992" d="M659.028,328.938c.164,2.435.62,4.835.786,7.27.029.441.719.443.689,0-.164-2.435-.62-4.835-.785-7.27-.03-.44-.72-.443-.69,0" transform="translate(5290.776 5305.699)" fill="#3b374c"/>
      <path id="패스_69993" data-name="패스 69993" d="M715.8,358.507q-13.123-.334-26.2-1.441c.77-1.045,1.572-2.065,2.3-3.143a.349.349,0,0,0-.389-.508,46.169,46.169,0,0,0-5.021,1.978c-.7-13.186.271-27.329-5.6-39.522a.3.3,0,0,0-.127-.135,10.481,10.481,0,0,0,3.89-2.325c.316-.312-.171-.8-.487-.487-2.6,2.567-7.619,3.544-11.042,2.585-3.211-.9-4.375-3.512-6.421-5.725-.3-.326-.789.162-.487.488,2.759,2.983,3.843,5.708,8.331,6.212a14.311,14.311,0,0,0,5.763-.593.336.336,0,0,0-.015.328c5.858,12.163,4.8,26.36,5.524,39.5-.129.065-.262.124-.391.191-.393.207-.044.8.349.6a36.513,36.513,0,0,1,4.9-2.073c-.8,1.092-1.638,2.152-2.393,3.274-.249.369.349.715.6.348.109-.161.232-.311.343-.469a.341.341,0,0,0,.263.158q13.14,1.113,26.319,1.45a.345.345,0,0,0,0-.69" transform="translate(5291.666 5303.323)" fill="#3b374c"/>
      <path id="패스_69994" data-name="패스 69994" d="M640.6,338.743c-.5-1.443-1.216-2.795-1.713-4.237-.147-.415-.812-.239-.665.183q.618,1.751,1.238,3.5a13.782,13.782,0,0,1-3.66-.925c-.411-.167-.59.5-.183.665a14,14,0,0,0,1.476.494c-1.963,12.346-3.073,24.732-4.2,37.183-.039.442.651.44.69,0,1.117-12.388,2.218-24.717,4.171-37a14.677,14.677,0,0,0,2.184.33c.153.4.8.223.66-.194" transform="translate(5287.496 5306.41)" fill="#3b374c"/>
      <path id="패스_69995" data-name="패스 69995" d="M638.717,336.215c7.8-1.434,15.594-2.912,23.4-4.347.436-.08.251-.745-.183-.665-7.8,1.435-15.594,2.913-23.4,4.347-.436.08-.251.745.184.665" transform="translate(5288.172 5306.024)" fill="#3b374c"/>
      <path id="패스_69996" data-name="패스 69996" d="M626.158,279.609c-1.739,2.088-4.915,6.846-6.653,8.933-1.8,2.161-14.129,24.237-14.129,24.237-6.288,1.237-17.274.018-22.579-.111-.935-.088-1.859-.194-2.7-.254a39.481,39.481,0,0,0-6.04-.405,10.662,10.662,0,0,0-8.724,6.229,1.8,1.8,0,0,0-.135,1.524,1.3,1.3,0,0,0,1.592.445c-.258.38-.492.781-.707,1.172-.357.647-.7,1.482-.258,2.071a1.548,1.548,0,0,0,2.028.054,15.024,15.024,0,0,1,1.783-1.341,16.325,16.325,0,0,0-1.767,3.458,1.925,1.925,0,0,0-.158.843c.1.9,1.371,1.223,2.142.756A4.094,4.094,0,0,0,571.308,325c-.461,1.086-.46,1.837-.922,2.923a1.931,1.931,0,0,0-.225,1.171,1.3,1.3,0,0,0,1.736.712,3.106,3.106,0,0,0,1.433-1.515,6.544,6.544,0,0,1,1.149-1.779c.669-.621.818-.425,1.73-.464a8.816,8.816,0,0,1,2.689.449l1.683.463a23.371,23.371,0,0,0,4.15.278c4.655.2,10.367,1.01,15.024,1.208,6.714.285,14.246.278,19.078-4.392,2.666-2.577,4.035-6.178,5.324-9.655q3.8-10.235,7.59-20.467c1.583-4.269-2.445-11.027-5.587-14.321m-57.422,38.866c.056-.059.108-.122.167-.177-.06-.126.087.006.177.068a2.649,2.649,0,0,0-.343.109" transform="translate(5278.981 5299.548)" fill="#ffb498"/>
      <path id="패스_69997" data-name="패스 69997" d="M593.1,349.137a2.606,2.606,0,0,0-.277.23c.03-.075.054-.152.089-.226-.1-.095.081-.027.188,0" transform="translate(5282.465 5308.271)" fill="#ff956a"/>
      <path id="패스_69998" data-name="패스 69998" d="M661.806,283.366c-5.977-6.57-19.135-16.11-28.58-13.18-2.328.721-13.339,12.647-13.648,12.8-1.691,2.3-3.745,5.277-5.024,6.813-1.091,1.311-6.3,10.371-10.035,16.965.1.074,1.042.773,1.144.844,4.642,3.221,8.275,6.312,13.329,8.619a72.53,72.53,0,0,0,10.985,5.006,28.563,28.563,0,0,0,7.59,2.194s11.54,2.473,20.628-.7,18.044-7.432,24.787-14.3c-3.263-5.945-18.337-21.944-21.174-25.061" transform="translate(5283.933 5298.296)" fill="#ffd357"/>
      <path id="패스_69999" data-name="패스 69999" d="M617.932,314.454c1-4.028,2.318-7.964,3.284-12,1.365-5.707,2.876-15.706,10.282-16.583.654-.077.662-1.113,0-1.034-4.718.558-7.061,4.265-8.732,8.433-2.625,6.545-4.131,14.057-5.833,20.913a.518.518,0,0,0,1,.275" transform="translate(5285.489 5300.204)" fill="#ffae31"/>
      <path id="패스_70000" data-name="패스 70000" d="M639.013,287.931c2.932,9.622-1.167,23.13-5.129,32.191-.265.6.627,1.132.894.522,2.3-5.254,3.683-11.1,5.023-16.669,1.328-5.523,1.886-10.816.211-16.318-.194-.636-1.193-.365-1,.275" transform="translate(5287.613 5300.513)" fill="#ffae31"/>
      <path id="패스_70001" data-name="패스 70001" d="M603.909,274.72q-2.013,2.814-4.177,5.492a11.187,11.187,0,0,1-3.566,3.257,1,1,0,0,1-.853.107c.761-4.179,3.567-7.483,6.254-10.544a6.19,6.19,0,0,1,2.342,1.688" transform="translate(5282.777 5298.722)" fill="#e4bea9"/>
      <path id="패스_70002" data-name="패스 70002" d="M631.55,273.749c-5.129-3.629-10.859-6.606-15.988-10.235-2.187-1.545-2.937-3.113-5.552-2.548-2.688,4.5-4.815,10.081-8.335,13.971,1.307,2.516,3.57,5.211,4.327,7.943a1.366,1.366,0,0,0,1.992.842,3.342,3.342,0,0,0,.9-.769c2.114,1.709,5.973,3.094,7.375,2.289.789-.455,1.384-1.389,3.025-3.307,1.327-1.551,3.9,1.428,5.569,2.606,1.354.134,7.641-5.811,6.685-10.793" transform="translate(5283.576 5297.192)" fill="#ffb498"/>
      <path id="패스_70003" data-name="패스 70003" d="M607.769,275.422c-1.074-1.977-2.8-.356-1.257.884.8.642,1.747.02,1.257-.884" transform="translate(5284.106 5298.906)" fill="#3b374c"/>
      <path id="패스_70004" data-name="패스 70004" d="M606.942,272.382a3.622,3.622,0,0,0-2.517,1.2.825.825,0,0,0-.29.869c.42,1.173,2,.1,2.831-1.006a.767.767,0,0,0,.177-.566c.054-.244.007-.474-.2-.5" transform="translate(5283.88 5298.639)" fill="#3b374c"/>
      <path id="패스_70005" data-name="패스 70005" d="M610.846,282.318a2.617,2.617,0,0,0,.689-2.33c-.026-.441-.716-.445-.69,0a2.038,2.038,0,0,1-.486,1.843c-.349.275.143.76.487.487" transform="translate(5284.651 5299.554)" fill="#f28351"/>
      <path id="패스_70006" data-name="패스 70006" d="M618.495,277.346a22.8,22.8,0,0,1-1.575,3.173,5.349,5.349,0,0,0-.385.873c.263-.32.553-.669.895-1.07.578-.675,1.393-.491,2.267.029a8.871,8.871,0,0,0,.416-4.991,2.8,2.8,0,0,0-.911-1.662c.419.315-.557,3.215-.708,3.648" transform="translate(5285.441 5298.806)" fill="#ff956a"/>
      <path id="패스_70007" data-name="패스 70007" d="M598.736,281.158a2.416,2.416,0,0,0-.378.964.846.846,0,0,0,.446.867c.451.186.924-.194,1.248-.558a14.2,14.2,0,0,0,2.43-3.828,2.37,2.37,0,0,0-.012,1.275c.263.172.6-.072.8-.316a5.139,5.139,0,0,0,1.034-2.189,9.275,9.275,0,0,1,.52-2.433,6.483,6.483,0,0,1,2.224-2,20.088,20.088,0,0,0,3.553-3.64,3.356,3.356,0,0,0,1.758,2.333,9.979,9.979,0,0,0,2.869.93,4.2,4.2,0,0,1-2.816-3.523,2.433,2.433,0,0,1,.292-1.836,1.992,1.992,0,0,1,2.368-.447,4.9,4.9,0,0,1,1.875,1.761c.965-.814,2.033-1.962,1.624-3.155A3.178,3.178,0,0,0,617.38,264l-1.855-1.438a4.919,4.919,0,0,0-2.029-1.11c-1.313-.242-2.566.6-3.579,1.471-2.837,2.437-6.736,6.275-8.384,9.632-.7,1.418-.077,2.348-.514,3.784a22,22,0,0,1-2.283,4.818" transform="translate(5283.159 5297.263)" fill="#3b374c"/>
      <path id="패스_70008" data-name="패스 70008" d="M611.654,259.556a9.5,9.5,0,0,0-9.809.908c-4.049,2.824-6.157,8.748-2.684,12.84.216.254.737,1.379,1.271,2.095-2.366,3.567-6,8.731-5.792,10.018a.6.6,0,0,0,.15.358.492.492,0,0,0,.4.083,5.4,5.4,0,0,0,2.737-1.6c-.455.195-.662.043-1.146.106a.479.479,0,0,1-.5-.147.576.576,0,0,1-.026-.413,5.273,5.273,0,0,1,.724-1.605,43.715,43.715,0,0,1,5.379-7.288c3.981-4.056,9.763-7.537,12.566-12.321.347-.592-2.825-2.791-3.272-3.032" transform="translate(5282.691 5296.908)" fill="#efd9cd"/>
      <path id="패스_70009" data-name="패스 70009" d="M614.212,273.069a4.017,4.017,0,0,0,.338-7.2,3.3,3.3,0,0,0-2.131-.4,2.413,2.413,0,0,0-1.737,1.235,4.221,4.221,0,0,0-.037,2.776c.348,1.623,2.306,2.514,3.567,3.594" transform="translate(5284.674 5297.767)" fill="#ffb498"/>
      <path id="패스_70010" data-name="패스 70010" d="M612.294,266.817a2.68,2.68,0,0,0,1.022,3.583,1.361,1.361,0,0,0,1.6.15.928.928,0,0,0,.263-1.384c-.293-.373-.843.115-.553.485.112.144-.149.334-.249.362a.787.787,0,0,1-.514-.131,2.54,2.54,0,0,1-.751-.69,1.656,1.656,0,0,1-.2-1.972c.241-.405-.373-.81-.615-.4" transform="translate(5284.866 5297.92)" fill="#ff956a"/>
      <path id="패스_70011" data-name="패스 70011" d="M615.534,267.465c.714,1.186,1.1,3.668-.468,4.359-.405.178-.054.773.349.6,1.945-.857,1.621-3.8.715-5.3a.345.345,0,0,0-.6.348" transform="translate(5285.234 5297.959)" fill="#ff956a"/>
      <path id="패스_70012" data-name="패스 70012" d="M618.678,282.586a30.683,30.683,0,0,0,2.507,15.83c.275.606,1.167.08.894-.522a29.617,29.617,0,0,1-2.366-15.307c.077-.661-.959-.655-1.034,0" transform="translate(5285.687 5299.86)" fill="#ffae31"/>
      <path id="패스_70013" data-name="패스 70013" d="M580.263,320.459a3.082,3.082,0,0,0,.567-.956Z" transform="translate(5280.888 5304.556)" fill="#ff956a"/>
      <path id="패스_70014" data-name="패스 70014" d="M584.034,320.644a1.509,1.509,0,0,0-1.772-.774,3.515,3.515,0,0,0-1.7,1.2l.387-.652a5.618,5.618,0,0,1-2.289,1.5c-.6.228-5.3,1.432-3.422,2.346a6.683,6.683,0,0,0,8.389-1.9,1.957,1.957,0,0,0,.407-1.718" transform="translate(5280.201 5304.596)" fill="#ffb498"/>
      <path id="패스_70015" data-name="패스 70015" d="M591.947,352.246a13.722,13.722,0,0,1,1.21-3.273c.469-.882,1.4-2.862,2.692-2.522a.518.518,0,0,0,.276-1c-2.978-.783-4.676,4.443-5.176,6.519-.155.647.842.923,1,.275" transform="translate(5282.227 5307.804)" fill="#ff956a"/>
      <path id="패스_70016" data-name="패스 70016" d="M597.344,347.634a3.2,3.2,0,0,0-1.8,1.962,22.5,22.5,0,0,0-1.355,3.82.518.518,0,0,0,1,.275,22.134,22.134,0,0,1,.84-2.613c.312-.787.708-2.149,1.6-2.445.628-.211.358-1.21-.276-1" transform="translate(5282.633 5308.084)" fill="#ff956a"/>
      <path id="패스_70017" data-name="패스 70017" d="M600.613,349.251c-2.828,1.081-3.359,4.044-3.61,6.736-.062.663.974.658,1.035,0,.2-2.149.52-4.849,2.849-5.738.617-.236.349-1.237-.275-1" transform="translate(5282.989 5308.287)" fill="#ff956a"/>
      <path id="패스_70018" data-name="패스 70018" d="M566.835,316.586a7.556,7.556,0,0,1,5.03-3.713c.651-.144.375-1.141-.275-1a8.574,8.574,0,0,0-5.649,4.189.518.518,0,0,0,.894.522" transform="translate(5279.081 5303.597)" fill="#ff956a"/>
      <path id="패스_70019" data-name="패스 70019" d="M568.813,319.04a11.987,11.987,0,0,1,5.013-3.906c.611-.259.084-1.15-.522-.894a12.949,12.949,0,0,0-5.385,4.277c-.4.536.5,1.052.894.522" transform="translate(5279.326 5303.89)" fill="#ff956a"/>
      <path id="패스_70020" data-name="패스 70020" d="M575.2,316.731c-2.555-.224-4.1,3.175-5.3,4.912-.378.549.518,1.068.894.522.617-.895,1.218-1.8,1.85-2.686.617-.861,1.387-1.816,2.552-1.714.663.059.66-.977,0-1.034" transform="translate(5279.576 5304.207)" fill="#ff956a"/>
      <path id="패스_70021" data-name="패스 70021" d="M611.153,276.263l-.044.044a1.318,1.318,0,0,0,1.863,1.863l.044-.044a1.318,1.318,0,0,0-1.863-1.863" transform="translate(5284.711 5299.079)" fill="#ff956a"/>
    </g>
  </g>
</svg>
