<svg xmlns="http://www.w3.org/2000/svg" width="32.781" height="46.292" viewBox="0 0 32.781 46.292"><circle cx="3.946" cy="3.946" r="3.946" transform="translate(11.509)" fill="#fff"/><path d="M882.057,798.763a2.407,2.407,0,1,0,4.691-1.08s-1.017-8.258-1.048-8.343a2.4,2.4,0,0,0-1.34-1.935l-9.1-3.224a7.24,7.24,0,0,0-3.739-.409,3.948,3.948,0,0,0-3.288,1.851l-4.128,7.111-7.714-.491a2.407,2.407,0,1,0,.1,4.812s8.292.684,8.381.673a2.4,2.4,0,0,0,2.167-.918l2.12-3.493L871.2,800.1l-7.4,6.182a3.107,3.107,0,0,0-.555,3.149l2.4,9.546a2.407,2.407,0,0,0,4.707-1.01l-2.2-9.118,7.248-5.2,4.991,16.1a2.407,2.407,0,1,0,4.493-1.728l-8.4-28.328,4.684,1.659Z" transform="translate(-854.029 -775.001)" fill="#fff"/></svg>