<svg id="그룹_70947" data-name="그룹 70947" xmlns="http://www.w3.org/2000/svg" width="25.309" height="35.742" viewBox="0 0 25.309 35.742">
  <circle id="타원_31" data-name="타원 31" cx="3.047" cy="3.047" r="3.047" transform="translate(8.885 0)"/>
  <path id="패스_726" data-name="패스 726" d="M875.67,795.327a1.858,1.858,0,1,0,3.622-.834s-.785-6.376-.809-6.442a1.853,1.853,0,0,0-1.035-1.494l-7.03-2.49a5.589,5.589,0,0,0-2.887-.316,3.048,3.048,0,0,0-2.539,1.429l-3.187,5.49-5.956-.379a1.858,1.858,0,0,0,.079,3.716s6.4.528,6.471.519a1.856,1.856,0,0,0,1.673-.709l1.637-2.7,1.58,5.238-5.711,4.773a2.4,2.4,0,0,0-.428,2.431l1.854,7.37a1.858,1.858,0,0,0,3.634-.78l-1.695-7.04,5.6-4.012,3.854,12.43a1.858,1.858,0,0,0,3.469-1.334l-6.488-21.872,3.617,1.281Z" transform="translate(-854.03 -776.98)"/>
</svg>
