<svg xmlns="http://www.w3.org/2000/svg" width="434.227" height="89.138" viewBox="0 0 434.227 89.138">
  <g id="그룹_71444" data-name="그룹 71444" transform="translate(-4493 -6144)">
    <g id="그룹_71138" data-name="그룹 71138" transform="translate(4493 6144)">
      <path id="패스_69010" data-name="패스 69010" d="M747.722,69.815a1.469,1.469,0,0,0-.121-.23,1.719,1.719,0,0,0-.169-.21,1.407,1.407,0,0,0-1.911,0,2.531,2.531,0,0,0-.169.21,1.476,1.476,0,0,0-.122.23,1.1,1.1,0,0,0-.074.256,1.149,1.149,0,0,0-.027.264,1.349,1.349,0,0,0,1.35,1.35,1.339,1.339,0,0,0,.953-.4,1.263,1.263,0,0,0,.169-.2,1.514,1.514,0,0,0,.121-.236,1.583,1.583,0,0,0,.081-.25,1.309,1.309,0,0,0,0-.526,1.658,1.658,0,0,0-.081-.256" transform="translate(-727.851 -32.821)" fill="#191919"/>
      <path id="패스_69011" data-name="패스 69011" d="M746.477,45.938a1.351,1.351,0,0,0,1.351-1.351V38.407c0-4.02.608-4.727,4.065-4.727h5.79a1.35,1.35,0,1,0,0-2.7h-5.79c-5.659,0-6.767,2.723-6.767,7.428v6.181a1.351,1.351,0,0,0,1.351,1.351" transform="translate(-727.849 -14.736)" fill="#191919"/>
      <path id="패스_69012" data-name="패스 69012" d="M765.979,70.833a1.5,1.5,0,0,0,.122.236,1.654,1.654,0,0,0,.169.2,1.339,1.339,0,0,0,.958.4,1.177,1.177,0,0,0,.263-.027,1.268,1.268,0,0,0,.486-.2,1.455,1.455,0,0,0,.372-.371,1.547,1.547,0,0,0,.122-.236,1.575,1.575,0,0,0,.081-.25,1.713,1.713,0,0,0,.027-.263,1.387,1.387,0,0,0-.4-.96,1.7,1.7,0,0,0-.2-.169,1.546,1.546,0,0,0-.236-.121,1.065,1.065,0,0,0-.25-.074,1.339,1.339,0,0,0-1.613,1.324,1.15,1.15,0,0,0,.027.263,1.054,1.054,0,0,0,.074.25" transform="translate(-737.72 -32.807)" fill="#191919"/>
      <path id="패스_69013" data-name="패스 69013" d="M767.977,79.824a1.215,1.215,0,0,0-.236-.128,1.114,1.114,0,0,0-.25-.073,1.34,1.34,0,0,0-1.614,1.323,1.351,1.351,0,0,0,.392.953,1.372,1.372,0,0,0,.959.4,1.714,1.714,0,0,0,.263-.027,1.6,1.6,0,0,0,.25-.081,1.544,1.544,0,0,0,.236-.122,1.482,1.482,0,0,0,.372-.371,1.634,1.634,0,0,0,.2-.486,1.719,1.719,0,0,0,.027-.264,1.385,1.385,0,0,0-.4-.958,1.223,1.223,0,0,0-.2-.163" transform="translate(-737.72 -37.861)" fill="#191919"/>
      <path id="패스_69014" data-name="패스 69014" d="M822.967,70.485a1.585,1.585,0,0,0,.128.236.981.981,0,0,0,.169.2,1.21,1.21,0,0,0,.2.169,1.46,1.46,0,0,0,.23.122,1.932,1.932,0,0,0,.256.081,1.73,1.73,0,0,0,.264.027,1.355,1.355,0,0,0,.952-.4.968.968,0,0,0,.169-.2,1.163,1.163,0,0,0,.128-.236,1.058,1.058,0,0,0,.074-.25,1.18,1.18,0,0,0,.027-.263,1.341,1.341,0,0,0-.4-.958,1.36,1.36,0,0,0-1.216-.365,1.214,1.214,0,0,0-.256.074,1.459,1.459,0,0,0-.23.122,1.571,1.571,0,0,0-.2.169,1.343,1.343,0,0,0-.4.958,1.145,1.145,0,0,0,.027.263,1.516,1.516,0,0,0,.074.25" transform="translate(-764.827 -32.641)" fill="#191919"/>
      <path id="패스_69015" data-name="패스 69015" d="M822.967,81.11a1.585,1.585,0,0,0,.128.236.981.981,0,0,0,.169.2,1.211,1.211,0,0,0,.2.169,1.46,1.46,0,0,0,.23.122,1.932,1.932,0,0,0,.256.081,1.729,1.729,0,0,0,.264.027,1.355,1.355,0,0,0,.952-.4.968.968,0,0,0,.169-.2,1.163,1.163,0,0,0,.128-.236,1.058,1.058,0,0,0,.074-.25,1.283,1.283,0,0,0,0-.526,1.107,1.107,0,0,0-.074-.256,1.131,1.131,0,0,0-.128-.23,1.2,1.2,0,0,0-.169-.209,1.36,1.36,0,0,0-1.216-.365,1.214,1.214,0,0,0-.256.074,1.46,1.46,0,0,0-.23.122,1.573,1.573,0,0,0-.2.169,1.216,1.216,0,0,0-.169.209,1.547,1.547,0,0,0-.128.23,1.588,1.588,0,0,0-.074.256,1.309,1.309,0,0,0,0,.526,1.515,1.515,0,0,0,.074.25" transform="translate(-764.827 -37.695)" fill="#191919"/>
      <path id="패스_69016" data-name="패스 69016" d="M785.341,123.192a1.157,1.157,0,0,0-.121-.236,1.289,1.289,0,0,0-.169-.2,1.384,1.384,0,0,0-1.9,0,1,1,0,0,0-.169.2,1.179,1.179,0,0,0-.128.236,1.075,1.075,0,0,0-.074.25,1.306,1.306,0,0,0,0,.526,1.176,1.176,0,0,0,.2.487,1.268,1.268,0,0,0,.169.209,1.354,1.354,0,0,0,1.9,0,1.762,1.762,0,0,0,.169-.209,1.107,1.107,0,0,0,.121-.23,1.133,1.133,0,0,0,.081-.257,1.309,1.309,0,0,0,0-.526,1.079,1.079,0,0,0-.081-.25" transform="translate(-745.745 -58.208)" fill="#191919"/>
      <path id="패스_69017" data-name="패스 69017" d="M801.25,77.518l-.027-13.565a1.347,1.347,0,0,0,.092-.481,6.767,6.767,0,0,0-6.767-6.752h-3.894v-4.03a10.455,10.455,0,0,0,7.226-9.275,1.328,1.328,0,0,0,.061-.384l-.024-8.747c0-.029.009-.058.009-.088s-.007-.061-.009-.093l0-1.524c0-.045.013-.089.013-.134,0-.1-.01-.193-.015-.29v-.169a1.269,1.269,0,0,0-.016-.155,6.768,6.768,0,0,0-6.733-6.138h-.508V18.446a9.475,9.475,0,0,0-9.475-9.453H767.983a11.528,11.528,0,0,0-22.492,0H732.3a9.475,9.475,0,0,0-9.475,9.453v7.247h-.509a6.767,6.767,0,0,0-6.764,6.752,1.346,1.346,0,0,0,.031.286l.028,10.283v.006a10.473,10.473,0,0,0,7.214,9.65V56.72h-3.878a6.768,6.768,0,0,0-6.767,6.752,1.134,1.134,0,0,1,0,.45l0,1.543c0,.011,0,.021,0,.033s0,.022,0,.034l.026,12.111v0a11.525,11.525,0,0,0,11.526,11.491h.008l8.566-.049h48.872a9.586,9.586,0,0,0,1.09-.067h7.457a11.518,11.518,0,0,0,11.5-11.064,1.358,1.358,0,0,0,.022-.223v-.216m-6.7-18.1a4.064,4.064,0,0,1,4.019,3.47,1.32,1.32,0,0,0-.047.337V63.9h-7.868V59.421Zm-13.37,26.966H732.3a6.771,6.771,0,0,1-6.774-6.752V41.667a9.453,9.453,0,0,0,6.774,2.857h3.972V48.19c0,.02,0,.039.006.059,0,.048.007.095.014.142s.014.083.024.124.025.085.039.127.03.081.048.12a1.264,1.264,0,0,0,.062.115c.023.038.046.074.071.11s.052.066.081.1a1.308,1.308,0,0,0,.1.1c.015.014.026.029.041.042l4.062,3.376a1.35,1.35,0,0,0,1.727,0l4.063-3.376c.015-.013.027-.029.041-.042a1.37,1.37,0,0,0,.1-.1c.029-.033.057-.065.082-.1a1.282,1.282,0,0,0,.071-.109c.023-.038.045-.076.063-.116a1.208,1.208,0,0,0,.048-.12,1.324,1.324,0,0,0,.04-.127c.01-.04.017-.082.023-.124a1.306,1.306,0,0,0,.015-.142c0-.02.006-.039.006-.059V44.35h19.057v3.657c0,.02.005.039.006.059a1.29,1.29,0,0,0,.015.142c.006.042.013.083.023.124s.025.085.039.127.03.081.048.12.04.078.062.115.046.074.072.11.052.066.081.1a1.393,1.393,0,0,0,.1.1c.015.014.026.029.041.042l4.063,3.376a1.35,1.35,0,0,0,1.726,0l4.063-3.376c.016-.013.027-.029.042-.042.035-.032.067-.066.1-.1s.056-.065.081-.1a1.257,1.257,0,0,0,.071-.109c.023-.038.044-.076.063-.116s.033-.079.048-.12.029-.084.039-.127.017-.082.023-.124.012-.094.014-.142c0-.02.006-.039.006-.059V44.523h4.2a9.452,9.452,0,0,0,6.774-2.857V79.635a6.771,6.771,0,0,1-6.774,6.752M744.4,28.393V47.556l-2.712,2.254-2.712-2.254V28.393Zm29.883-.182V47.373l-2.712,2.254-2.712-2.254V43.385a1.214,1.214,0,0,0,0-.771v-14.4Zm16.375,21.548V35.548h4.565l.019,7.152a1.355,1.355,0,0,0-.043.321,7.589,7.589,0,0,1-4.542,6.738m4.556-17.6,0,.691h-4.558V28.394h.505a4.062,4.062,0,0,1,4.051,3.762M756.738,2.7A8.81,8.81,0,0,1,765.2,8.993H748.28A8.81,8.81,0,0,1,756.738,2.7M725.523,18.446a6.771,6.771,0,0,1,6.774-6.752h48.88a6.771,6.771,0,0,1,6.774,6.752V35.07a6.771,6.771,0,0,1-6.774,6.752h-4.132l-.066-.008v-13.6h0a1.351,1.351,0,1,0,0-2.7H766.149a1.35,1.35,0,0,0,0,2.7h0V41.649H747.1V28.394h0a1.351,1.351,0,1,0,0-2.7H736.266a1.351,1.351,0,0,0,0,2.7h0V41.822H732.3a6.771,6.771,0,0,1-6.774-6.752Zm-3.207,9.948h.506v4.453h-4.54l0-.871a4.065,4.065,0,0,1,4.036-3.581m-4.007,14.629v-.006l-.02-7.47h4.533v14.2a7.635,7.635,0,0,1-4.513-6.722m.635,16.4h3.878v4.726h-7.944v-.231a1.333,1.333,0,0,0-.023-.22,1.319,1.319,0,0,0,.023-.224,4.063,4.063,0,0,1,4.066-4.052M714.907,77.64v0l-.023-10.788h7.938V79.635a9.408,9.408,0,0,0,2.9,6.79l-1.99.012a8.821,8.821,0,0,1-8.824-8.8m74.817,8.679h-1.853a9.411,9.411,0,0,0,2.782-6.684V66.6h7.873l.021,10.929a8.82,8.82,0,0,1-8.824,8.788" transform="translate(-712.177 0)" fill="#191919"/>
      <path id="패스_69018" data-name="패스 69018" d="M797.717,108.174a1.3,1.3,0,0,0-.144.015,1.258,1.258,0,0,0-.141-.014H759.366a1.351,1.351,0,0,0-1.351,1.351V121.9a11.3,11.3,0,0,0,10.741,11.483,1.334,1.334,0,0,0,.288.033l19.807,0a1.339,1.339,0,0,0,.549-.119,11.357,11.357,0,0,0,9.666-11.4V109.525a1.351,1.351,0,0,0-1.351-1.351M788.038,130.7a1.348,1.348,0,0,0-.207.021l-18.616,0a1.3,1.3,0,0,0-.17-.017,8.586,8.586,0,0,1-8.328-8.8V110.875h35.65v4.479h-17.99a1.351,1.351,0,1,0,0,2.7h17.99v3.835a8.586,8.586,0,0,1-8.328,8.8" transform="translate(-733.98 -51.454)" fill="#191919"/>
    </g>
    <g id="그룹_71141" data-name="그룹 71141" transform="translate(4614.123 6144)">
      <path id="패스_69019" data-name="패스 69019" d="M145.007,568.183a1.346,1.346,0,0,0,.954-.394l9.839-9.809a1.35,1.35,0,1,0-1.907-1.912l-9.84,9.809a1.351,1.351,0,0,0,.954,2.307" transform="translate(-68.332 -555.32)" fill="#191919"/>
      <path id="패스_69020" data-name="패스 69020" d="M160.664,585.03l-3.738,2.2a1.351,1.351,0,1,0,1.37,2.328l3.737-2.2a1.35,1.35,0,1,0-1.37-2.328" transform="translate(-74.327 -569.195)" fill="#191919"/>
      <path id="패스_69021" data-name="패스 69021" d="M129.188,562.022a1.351,1.351,0,0,0,1.848-.483l2.64-4.505a1.351,1.351,0,0,0-2.331-1.365l-2.64,4.506a1.35,1.35,0,0,0,.483,1.848" transform="translate(-61.132 -555)" fill="#191919"/>
      <path id="패스_69022" data-name="패스 69022" d="M151.324,593.346a1.2,1.2,0,0,0-.162-.2,1.244,1.244,0,0,0-.209-.169,1.1,1.1,0,0,0-.23-.128,1.136,1.136,0,0,0-.257-.074,1.16,1.16,0,0,0-.526,0,1.081,1.081,0,0,0-.25.074,1.152,1.152,0,0,0-.236.128.984.984,0,0,0-.2.169,1.2,1.2,0,0,0-.168.2,1.481,1.481,0,0,0-.128.23,1.605,1.605,0,0,0-.074.256,1.152,1.152,0,0,0-.027.263,1.34,1.34,0,0,0,.4.952,1.3,1.3,0,0,0,.439.3,1.353,1.353,0,0,0,1.472-.3,1.362,1.362,0,0,0,.392-.952,1.5,1.5,0,0,0-.1-.52,1.122,1.122,0,0,0-.128-.23" transform="translate(-70.803 -572.953)" fill="#191919"/>
      <path id="패스_69023" data-name="패스 69023" d="M137.622,581.765a1.144,1.144,0,0,0,.027.263,1.127,1.127,0,0,0,.074.256,1.488,1.488,0,0,0,.122.23,2.608,2.608,0,0,0,.169.209,1.365,1.365,0,0,0,.959.392,1.349,1.349,0,0,0,.952-.392,1.216,1.216,0,0,0,.169-.209,1.1,1.1,0,0,0,.128-.23,1.576,1.576,0,0,0,.074-.256,1.145,1.145,0,0,0,.027-.263,1.327,1.327,0,0,0-.4-.952,1.391,1.391,0,0,0-1.911,0,1.348,1.348,0,0,0-.392.952" transform="translate(-65.461 -567.097)" fill="#191919"/>
      <path id="패스_69024" data-name="패스 69024" d="M126.017,572.978a1.343,1.343,0,0,0,.959-.4,1.327,1.327,0,0,0,.4-.952,1.383,1.383,0,0,0-.4-.958,1.4,1.4,0,0,0-1.911,0,1.381,1.381,0,0,0-.4.958,1.361,1.361,0,0,0,1.351,1.351" transform="translate(-59.299 -562.275)" fill="#191919"/>
      <path id="패스_69025" data-name="패스 69025" d="M51.565,579.207a1.492,1.492,0,0,0,.128.23,1.213,1.213,0,0,0,.169.2,1.343,1.343,0,0,0,1.911,0,1.213,1.213,0,0,0,.169-.2,1.454,1.454,0,0,0,.122-.23,1.467,1.467,0,0,0,.1-.52,1.347,1.347,0,0,0-.392-.952,1.391,1.391,0,0,0-1.911,0,1.354,1.354,0,0,0-.4.952,1.646,1.646,0,0,0,.027.263c.02.088.047.175.074.256" transform="translate(-24.479 -565.634)" fill="#191919"/>
      <path id="패스_69026" data-name="패스 69026" d="M73.779,607.722a1.233,1.233,0,0,0-.157-.045,21.509,21.509,0,0,0-6.02-.86H54.928A10.753,10.753,0,0,1,44.168,596.1l.01-12.48a1.35,1.35,0,0,0,.018-.18,1.392,1.392,0,0,0-.018-.176l.018-21.674v-.008a1.271,1.271,0,0,0-.013-.128,1.243,1.243,0,0,0-.014-.141,1.185,1.185,0,0,0-.038-.127,1.256,1.256,0,0,0-.039-.126,1.315,1.315,0,0,0-.063-.119c-.02-.037-.037-.076-.06-.111s-.057-.069-.085-.1-.05-.067-.079-.1-.068-.057-.1-.085-.062-.057-.1-.081-.077-.042-.115-.063-.074-.045-.114-.062-.083-.026-.124-.04-.084-.03-.129-.04a1.323,1.323,0,0,0-.132-.014c-.045,0-.089-.014-.136-.015l-40.1-.273v-3.323a1.35,1.35,0,1,0-2.7,0v2.8A1.316,1.316,0,0,0,0,559.8l.055,53.931H.03l0,22.017A1.321,1.321,0,0,0,0,636.02a1.346,1.346,0,0,0,.029.278v6.622a1.351,1.351,0,0,0,1.351,1.351H87.5a.708.708,0,0,1,.288,0,1.351,1.351,0,0,0,1.351-1.351V628.288a21.515,21.515,0,0,0-15.358-20.567M2.753,610.687a25.209,25.209,0,0,1,24.122,24.021L2.73,634.674l0-18.244h.027ZM2.73,637.375l57.609.081c.035,0,.068.015.1.015a1.414,1.414,0,0,0,.147-.015l25.846.036v4.077H2.729Zm83.706-9.086v6.5l-25.081-.036a18.6,18.6,0,0,1-1.149-6.468,18.875,18.875,0,0,1,13.125-17.879,18.808,18.808,0,0,1,13.1,17.879m-31.508-18.77H67.6q.488,0,.97.025A21.6,21.6,0,0,0,57.5,628.288a21.327,21.327,0,0,0,1,6.464l-28.924-.041A27.91,27.91,0,0,0,2.75,607.986l-.033-31.777H41.483l0,5.877H29.7a1.35,1.35,0,1,0,0,2.7H41.476l0,5.433H29.7a1.35,1.35,0,1,0,0,2.7H41.469l0,3.174h0a13.4,13.4,0,0,0,.206,2.257H29.7a1.351,1.351,0,1,0,0,2.7H42.43a13.473,13.473,0,0,0,12.5,8.464m-13.434-46.6-.009,10.59H2.715l0-3.976,17.3.005a1.35,1.35,0,1,0,0-2.7l-17.3-.006,0-2.807a1.325,1.325,0,0,0,.052-.352v-1.016Z" transform="translate(0 -555.133)" fill="#191919"/>
    </g>
    <g id="그룹_71139" data-name="그룹 71139" transform="translate(4845.356 6144)">
      <path id="패스_68993" data-name="패스 68993" d="M851.641,290.255a1.344,1.344,0,0,0,.955-.4l9.875-9.876a1.351,1.351,0,0,0-1.91-1.91l-9.875,9.876a1.351,1.351,0,0,0,.955,2.306" transform="translate(-781.506 -277.322)" fill="#191919"/>
      <path id="패스_68994" data-name="패스 68994" d="M869.206,307.711a1.351,1.351,0,0,0-1.85-.477l-3.752,2.214a1.351,1.351,0,1,0,1.374,2.327l3.751-2.214a1.351,1.351,0,0,0,.477-1.85" transform="translate(-787.522 -291.292)" fill="#191919"/>
      <path id="패스_68995" data-name="패스 68995" d="M835.766,284.054a1.35,1.35,0,0,0,1.848-.486l2.649-4.536a1.351,1.351,0,0,0-2.333-1.362l-2.649,4.536a1.351,1.351,0,0,0,.485,1.847" transform="translate(-774.279 -277)" fill="#191919"/>
      <path id="패스_68996" data-name="패스 68996" d="M857.977,315.621a1.243,1.243,0,0,0-.162-.2,1.4,1.4,0,0,0-1.911,0,1,1,0,0,0-.169.2,1.539,1.539,0,0,0-.128.236,1.465,1.465,0,0,0-.074.25,1.286,1.286,0,0,0,0,.526,1.54,1.54,0,0,0,.074.257,1.469,1.469,0,0,0,.128.229,1.254,1.254,0,0,0,.169.21,1.755,1.755,0,0,0,.2.169,1.563,1.563,0,0,0,.237.121,1.059,1.059,0,0,0,.25.074,1.153,1.153,0,0,0,.263.027,1.379,1.379,0,0,0,.959-.392,1.653,1.653,0,0,0,.162-.21,1.1,1.1,0,0,0,.128-.229,1.11,1.11,0,0,0,.074-.257,1.286,1.286,0,0,0,0-.526,1.057,1.057,0,0,0-.074-.25,1.146,1.146,0,0,0-.128-.236" transform="translate(-783.986 -295.095)" fill="#191919"/>
      <path id="패스_68997" data-name="패스 68997" d="M844.459,303.191a1.452,1.452,0,0,0-.121.23,1.728,1.728,0,0,0-.081.257,1.642,1.642,0,0,0-.02.263,1.352,1.352,0,0,0,2.3.96,1.386,1.386,0,0,0,.4-.96,1.766,1.766,0,0,0-.027-.263,1.928,1.928,0,0,0-.081-.257,1.548,1.548,0,0,0-.121-.23,1.286,1.286,0,0,0-.169-.2,1.392,1.392,0,0,0-1.911,0,1.686,1.686,0,0,0-.169.2" transform="translate(-778.626 -289.181)" fill="#191919"/>
      <path id="패스_68998" data-name="패스 68998" d="M831.836,294.84a1.27,1.27,0,0,0,.23.122,1.187,1.187,0,0,0,.25.074,1.206,1.206,0,0,0,.271.027,1.179,1.179,0,0,0,.263-.027,1.2,1.2,0,0,0,.25-.074,1.255,1.255,0,0,0,.229-.122,1.79,1.79,0,0,0,.21-.169,1.345,1.345,0,0,0,0-1.911,1.321,1.321,0,0,0-.21-.169,1.261,1.261,0,0,0-.229-.122,1.877,1.877,0,0,0-.25-.081,1.407,1.407,0,0,0-.534,0,1.843,1.843,0,0,0-.25.081,1.276,1.276,0,0,0-.23.122,1.3,1.3,0,0,0-.209.169,1.346,1.346,0,0,0,0,1.911,1.744,1.744,0,0,0,.209.169" transform="translate(-772.439 -284.308)" fill="#191919"/>
      <path id="패스_68999" data-name="패스 68999" d="M761.947,291.766a8.05,8.05,0,1,0-10.62,0,37.529,37.529,0,1,0,10.62,0m-5.31-11.387a5.351,5.351,0,1,1-5.349,5.351,5.356,5.356,0,0,1,5.349-5.351m0,83.38a34.837,34.837,0,1,1,34.828-34.837,34.872,34.872,0,0,1-34.828,34.837" transform="translate(-719.107 -277.323)" fill="#191919"/>
      <path id="패스_69000" data-name="패스 69000" d="M762.318,315.762h0a31.307,31.307,0,0,0-31.267,31.275h0a31.267,31.267,0,1,0,31.269-31.277m1.35,59.815V367.09a1.35,1.35,0,1,0-2.7,0v8.487a28.606,28.606,0,0,1-27.182-27.188h8.356a1.351,1.351,0,1,0,0-2.7h-8.356A28.606,28.606,0,0,1,760.966,318.5v8.358a1.351,1.351,0,0,0,2.7,0V318.5a28.605,28.605,0,0,1,27.181,27.192h-8.484a1.35,1.35,0,1,0,0,2.7l8.484,0a28.606,28.606,0,0,1-27.181,27.186" transform="translate(-724.787 -295.438)" fill="#191919"/>
      <path id="패스_69001" data-name="패스 69001" d="M791.129,371.237a4.835,4.835,0,1,0-4.829,4.6,4.723,4.723,0,0,0,4.829-4.6m-4.829,1.9a1.91,1.91,0,1,1,2.128-1.9,2.025,2.025,0,0,1-2.128,1.9" transform="translate(-748.771 -319.638)" fill="#191919"/>
      <path id="패스_69002" data-name="패스 69002" d="M792.255,376.075a1.3,1.3,0,0,0,.036-.129,1.262,1.262,0,0,0,.014-.127c0-.045.01-.089.01-.134s-.006-.078-.01-.117a1.317,1.317,0,0,0-.017-.143c-.008-.039-.021-.076-.033-.114a1.266,1.266,0,0,0-.042-.135,1.317,1.317,0,0,0-.072-.137c-.016-.029-.027-.059-.046-.088l-8.013-12.173a9.413,9.413,0,0,0,.613-3.323,9.847,9.847,0,0,0-9.964-9.7,10.16,10.16,0,0,0-3.079.479L759.262,342.1l-.01-.007-.017-.011c-.018-.012-.039-.019-.058-.03a1.389,1.389,0,0,0-.17-.088c-.032-.014-.066-.021-.1-.031a1.3,1.3,0,0,0-.152-.044c-.035-.007-.07-.008-.1-.013a1.414,1.414,0,0,0-.156-.013c-.033,0-.065,0-.1.007a1.309,1.309,0,0,0-.163.018c-.032.006-.063.018-.1.027a1.319,1.319,0,0,0-.153.047c-.041.017-.08.04-.119.06s-.07.031-.1.052l-.011.009c-.038.025-.073.057-.109.087s-.071.053-.1.083-.034.041-.051.061a1.3,1.3,0,0,0-.121.148l-.006.007c-.014.021-.022.043-.034.065a1.381,1.381,0,0,0-.084.161c-.015.037-.025.074-.036.112a1.389,1.389,0,0,0-.039.137c-.008.041-.01.082-.015.124a1.3,1.3,0,0,0-.011.136c0,.04.005.079.008.118s.007.094.016.142.021.078.033.117a1.314,1.314,0,0,0,.041.132,1.375,1.375,0,0,0,.069.136c.016.029.027.06.045.089l7.945,12.387a9.408,9.408,0,0,0-.537,3.122,9.846,9.846,0,0,0,9.964,9.7,10.194,10.194,0,0,0,2.924-.433l12.58,8.1c.015.009.031.012.046.021a1.358,1.358,0,0,0,.23.1c.036.013.07.03.107.04a1.369,1.369,0,0,0,.332.047l.016,0h0l.016,0a1.359,1.359,0,0,0,.338-.049c.037-.01.071-.028.108-.041a1.335,1.335,0,0,0,.232-.108c.016-.009.033-.013.048-.023a1.38,1.38,0,0,0,.109-.088c.026-.021.053-.039.078-.063a1.333,1.333,0,0,0,.2-.239l.006-.007c.017-.026.026-.054.041-.08a1.353,1.353,0,0,0,.075-.147,1.211,1.211,0,0,0,.038-.122m-24.788-16.62a6.726,6.726,0,0,1,.575-2.734h0a1.364,1.364,0,0,0,.114-.522c0-.01,0-.021,0-.031a1.335,1.335,0,0,0-.141-.582,1.3,1.3,0,0,0-.067-.132l0-.007-4.889-7.623,7.263,4.765a1.349,1.349,0,0,0,1.572.422,7.439,7.439,0,0,1,2.84-.556,7.143,7.143,0,0,1,7.263,7,6.744,6.744,0,0,1-.564,2.711c-.01.024-.015.049-.024.073a1.346,1.346,0,0,0,.028,1.431l4.888,7.425-7.381-4.755a2.937,2.937,0,0,0-1.6-.35,7.473,7.473,0,0,1-2.613.466,7.143,7.143,0,0,1-7.263-7" transform="translate(-737.201 -307.855)" fill="#191919"/>
    </g>
    <g id="그룹_71140" data-name="그룹 71140" transform="translate(4735.769 6144)">
      <path id="패스_69003" data-name="패스 69003" d="M497.9,332.071a.975.975,0,0,0-.23-.128,1.19,1.19,0,0,0-.25-.074,1.428,1.428,0,0,0-.534,0,1.264,1.264,0,0,0-.486.2,1.275,1.275,0,0,0-.2.162,1.681,1.681,0,0,0-.168.21,1.482,1.482,0,0,0-.122.229,1.605,1.605,0,0,0-.081.257,1.749,1.749,0,0,0,0,.527,1.526,1.526,0,0,0,.081.25,1.293,1.293,0,0,0,.122.236,1.219,1.219,0,0,0,.168.2,1.342,1.342,0,0,0,.953.4,1.174,1.174,0,0,0,.27-.027,1.728,1.728,0,0,0,.25-.074,1.232,1.232,0,0,0,.23-.128.977.977,0,0,0,.209-.169,1.578,1.578,0,0,0,.169-.2,1.252,1.252,0,0,0,.122-.236,1.081,1.081,0,0,0,.074-.25,1.159,1.159,0,0,0,.027-.264,1.377,1.377,0,0,0-.392-.959,1.26,1.26,0,0,0-.209-.162" transform="translate(-489.27 -303.087)" fill="#191919"/>
      <path id="패스_69004" data-name="패스 69004" d="M509.782,304.549a1.351,1.351,0,0,0-1.351-1.351H501.92c-2.414,0-4.114.26-5.134,1.554-.919,1.168-.988,2.836-.988,5.248v1.7a1.351,1.351,0,1,0,2.7,0V310c0-4.1,0-4.1,3.421-4.1h6.511a1.351,1.351,0,0,0,1.351-1.351" transform="translate(-489.266 -289.461)" fill="#191919"/>
      <path id="패스_69005" data-name="패스 69005" d="M573.4,368.953a4.654,4.654,0,1,0,4.652,4.655,4.658,4.658,0,0,0-4.652-4.655m0,6.608a1.953,1.953,0,1,1,1.951-1.953,1.954,1.954,0,0,1-1.951,1.953" transform="translate(-523.967 -320.738)" fill="#191919"/>
      <path id="패스_69006" data-name="패스 69006" d="M533.421,368.953a4.654,4.654,0,1,0,4.652,4.655,4.658,4.658,0,0,0-4.652-4.655m0,6.608a1.953,1.953,0,1,1,1.951-1.953,1.954,1.954,0,0,1-1.951,1.953" transform="translate(-504.95 -320.738)" fill="#191919"/>
      <path id="패스_69007" data-name="패스 69007" d="M555.031,283.867v-2.638c0-4.11-10.595-4.228-11.8-4.228s-11.8.118-11.8,4.228v2.638c-4.529.79-5.743,2.07-5.743,3.212v18.83H518.43V287.171c0-1.142-1.214-2.42-5.742-3.21v-2.638c0-4.11-10.594-4.229-11.8-4.229s-11.8.118-11.8,4.229v2.638c-4.529.79-5.743,2.068-5.743,3.21V314.1c0,1.141,1.213,2.42,5.742,3.211V342.67c0,1.84,1.5,3.24,3.726,4.178v8.513h-.451a1.351,1.351,0,0,0-1.35,1.351v8.076a1.351,1.351,0,0,0,1.35,1.351h17.054a1.351,1.351,0,0,0,1.351-1.351v-8.076a1.351,1.351,0,0,0-1.351-1.351h-.449v-8.512c2.231-.939,3.727-2.338,3.727-4.178v-3.521h18.738v3.429c0,1.84,1.5,3.239,3.727,4.177v8.511H534.7a1.351,1.351,0,0,0-1.351,1.351v8.075a1.351,1.351,0,0,0,1.351,1.351h17.054a1.35,1.35,0,0,0,1.35-1.351v-8.075a1.35,1.35,0,0,0-1.35-1.351h-.45v-8.512c2.231-.938,3.727-2.337,3.727-4.177V317.217c4.528-.79,5.742-2.07,5.742-3.211V287.078c0-1.142-1.214-2.421-5.742-3.211m-20.9-2.478c.589-.608,3.76-1.688,9.1-1.688s8.512,1.08,9.1,1.688V283.5a106,106,0,0,0-18.2,0Zm-8.444,27.219v5.4c0,1.142,1.214,2.421,5.743,3.211v3.372H512.688v-3.277c4.529-.79,5.742-2.069,5.742-3.211v-5.492Zm8.108,27.839H510.322a5.408,5.408,0,0,1-5.4-5.4v-2.353a5.408,5.408,0,0,1,5.4-5.4h23.469a5.408,5.408,0,0,1,5.4,5.4v2.353a5.408,5.408,0,0,1-5.4,5.4m-42.006-54.964c.59-.609,3.76-1.689,9.1-1.689s8.511,1.08,9.1,1.689v2.11a105.926,105.926,0,0,0-18.2,0Zm-5.743,6.1a15.929,15.929,0,0,1,4.324-1.035l.252-.035a75.838,75.838,0,0,1,8.838-.6c.467-.006.941-.011,1.431-.011s.964,0,1.431.011a75.824,75.824,0,0,1,8.837.6l.253.035a15.923,15.923,0,0,1,4.322,1.035v26.111c-1.191.649-6.236,1.677-14.843,1.677s-13.653-1.029-14.844-1.677Zm22.018,75.856H493.708v-5.374H508.06Zm-1.8-8.076H495.51V347.69a25.771,25.771,0,0,0,10.75,0Zm-5.374-9.805c-5.647,0-9.1-1.868-9.1-2.885V317.678a105.947,105.947,0,0,0,18.2,0v2.928a8.106,8.106,0,0,0-7.768,8.086v2.353a8.106,8.106,0,0,0,7.768,8.086v3.538c0,1.017-3.455,2.885-9.1,2.885M550.4,363.342H536.051v-5.374H550.4Zm-1.8-8.076H537.854V347.6a25.787,25.787,0,0,0,10.749,0Zm3.727-12.688c0,1.017-3.456,2.884-9.1,2.884s-9.1-1.868-9.1-2.884v-3.446a8.106,8.106,0,0,0,7.768-8.086v-2.353a8.106,8.106,0,0,0-7.768-8.086v-3.023a105.961,105.961,0,0,0,18.2,0Zm5.741-28.981c-1.19.648-6.235,1.677-14.843,1.677s-13.653-1.029-14.844-1.677v-26.11a16,16,0,0,1,4.356-1.04l.22-.03a75.636,75.636,0,0,1,8.832-.6c.468-.007.945-.011,1.436-.011s.968,0,1.436.011a75.654,75.654,0,0,1,8.833.6l.191.026a16.056,16.056,0,0,1,4.382,1.044Z" transform="translate(-483.341 -277)" fill="#191919"/>
      <path id="패스_69008" data-name="패스 69008" d="M577.244,331.615a1.362,1.362,0,0,0,0,1.911,1.384,1.384,0,0,0,.959.4,1.362,1.362,0,0,0,1.35-1.351,1.371,1.371,0,0,0-.4-.959,1.4,1.4,0,0,0-1.91,0" transform="translate(-527.821 -302.8)" fill="#191919"/>
      <path id="패스_69009" data-name="패스 69009" d="M589.482,302.565h-6.511c-2.413,0-4.115.26-5.134,1.554-.92,1.168-.989,2.836-.989,5.248v1.7a1.351,1.351,0,0,0,2.7,0v-1.7c0-4.1,0-4.1,3.421-4.1h6.511a1.351,1.351,0,0,0,0-2.7" transform="translate(-527.819 -289.16)" fill="#191919"/>
    </g>
  </g>
</svg>
