<svg xmlns="http://www.w3.org/2000/svg" xmlns:xlink="http://www.w3.org/1999/xlink" width="292" height="262" viewBox="0 0 292 262">
  <defs>
    <clipPath id="clip-path">
      <rect id="사각형_70103" data-name="사각형 70103" width="292" height="262" fill="#2ca8ec"/>
    </clipPath>
    <clipPath id="clip-path-2">
      <rect id="사각형_70097" data-name="사각형 70097" width="7.8" height="5.201" fill="#2ca8ec"/>
    </clipPath>
    <clipPath id="clip-path-3">
      <rect id="사각형_70098" data-name="사각형 70098" width="6.082" height="5.81" fill="#2ca8ec"/>
    </clipPath>
    <clipPath id="clip-path-4">
      <rect id="사각형_70099" data-name="사각형 70099" width="4.253" height="8" fill="#2ca8ec"/>
    </clipPath>
    <clipPath id="clip-path-5">
      <rect id="사각형_70100" data-name="사각형 70100" width="7.576" height="7.623" fill="#2ca8ec"/>
    </clipPath>
    <clipPath id="clip-path-6">
      <rect id="사각형_70101" data-name="사각형 70101" width="8.367" height="6.01" fill="#2ca8ec"/>
    </clipPath>
    <clipPath id="clip-path-7">
      <rect id="사각형_70102" data-name="사각형 70102" width="7.005" height="7.158" fill="#2ca8ec"/>
    </clipPath>
  </defs>
  <g id="그룹_71162" data-name="그룹 71162" transform="translate(-1002.961 -6465)">
    <text id="강릉바우길_완주" data-name="강릉바우길 완주" transform="translate(1141.973 6645.879)" fill="#2ca8ec" font-size="14" font-family="NotoSansKR-Bold, Noto Sans KR" font-weight="700" letter-spacing="-0.05em"><tspan x="-44" y="0">강릉바우길 완주</tspan></text>
    <path id="패스_68195" data-name="패스 68195" d="M2492.044,4694.952c0,.916,2.073.368,11.825,2.866,5.486,1.585,5.547,6.1,5.547,6.1l1.706,9.266s-9.386.3-10.667.427-3.717.3-3.839,2.071a14.611,14.611,0,0,0,.913,5.61,5.942,5.942,0,0,0,5.731,3.109c3.595-.183,11.824-.244,11.824-.244s2.683,0,2.5,2.559,0,23.406,0,23.406l-21.578-.548,1.159-14.02s.548-4.936-4.39-4.936-15.969.488-16.153.488-2.072.179-1.646.854,8.046.972,13.228,2.985,5.3,11.338,5.425,12.739a10.112,10.112,0,0,1,0,2.2l-12.129.488s-1.951.06-1.829,3.169.792,5,1.829,5.914a7.3,7.3,0,0,0,4.266,1.462c1.646.124,12.861,0,12.861,0a2.544,2.544,0,0,1,1.95,2.928c-.182,2.56,0,15.6,0,15.6h3.109v-16.762a1.879,1.879,0,0,1,1.707-1.769c1.646-.184,10.911-.242,13.959-.854s8.838-4.389,10.423-6.521,1.281-3.169-.914-3.169-7.924-.245-7.924-.245v-23.893s-.305-2.256,1.829-2.317,10.424.185,13.592-.428,8.291-4.267,9.875-6.154,2.561-4.084,0-4.145-33.038-.306-33.038-.306l1.036-14.689s.122-2.317-1.036-3.232a5.342,5.342,0,0,0-3.474-1.036c-1.036,0-16.7.245-16.7.245S2492.044,4694.039,2492.044,4694.952Z" transform="translate(-1361.116 1851.759)" fill="#2ca8ec"/>
    <g id="그룹_71161" data-name="그룹 71161" transform="translate(1002.961 6465)">
      <g id="그룹_71160" data-name="그룹 71160" clip-path="url(#clip-path)">
        <path id="패스_69027" data-name="패스 69027" d="M148.594,262c-58.288,0-96.291-9.809-96.84-9.954l-.693-.184L0,166.337l.267-.77C35.9,62.76,96.138,1.133,96.743.521L97.258,0H198.933l.526.644c73.475,89.753,92.193,165.677,92.374,166.434l.165.693-.364.611-50.893,85.4-.791.142A520.227,520.227,0,0,1,148.594,262M53.342,248.827c8.012,1.961,84.74,19.58,185.2,1.788l49.7-83.4c-2.018-7.7-22.171-79.412-90.976-163.7H98.74C92.873,9.658,37.509,69.372,3.857,165.944Z" fill="#2ca8ec"/>
        <g id="그룹_71144" data-name="그룹 71144" transform="translate(51.366 128.918)" style="mix-blend-mode: normal;isolation: isolate">
          <g id="그룹_71143" data-name="그룹 71143">
            <g id="그룹_71142" data-name="그룹 71142" clip-path="url(#clip-path-2)">
              <path id="패스_69028" data-name="패스 69028" d="M37.015,74.91l-7.8-1.426,6.089,5.2Z" transform="translate(-29.215 -73.485)" fill="#2ca8ec"/>
            </g>
          </g>
        </g>
        <path id="패스_69029" data-name="패스 69029" d="M96.709,5.17C38.95,65.49,6.629,157.762,6.629,157.762L59.3,172.989C100.6,62.8,169.73,5.17,169.73,5.17Zm-42.2,140.259a5.7,5.7,0,0,1-2.185,2.686,6.126,6.126,0,0,1-3.4.933,10.1,10.1,0,0,1-4.111-.974l-6.068-2.719a11.776,11.776,0,0,1-3.733-2.53,6.939,6.939,0,0,1-1.844-3.253,5.6,5.6,0,0,1,.318-3.489,5.155,5.155,0,0,1,1.857-2.3,6.394,6.394,0,0,1,2.985-1.063,9.852,9.852,0,0,1,3.669.346l-1.357,3.26a3.111,3.111,0,0,0-1.352.04,2.689,2.689,0,0,0-1.092.57,2.493,2.493,0,0,0-.691.953,2.544,2.544,0,0,0-.137,1.617,3.3,3.3,0,0,0,.895,1.525,5.716,5.716,0,0,0,1.783,1.2l6.069,2.721a4.379,4.379,0,0,0,1.841.419,2.708,2.708,0,0,0,1.533-.463,2.8,2.8,0,0,0,1-1.275,2.636,2.636,0,0,0,.164-1.621,3.114,3.114,0,0,0-.86-1.5,5.769,5.769,0,0,0-1.8-1.2l-.341-.154-1.009,2.423L42.908,139.9l2.312-5.553,4.017,1.8a11.811,11.811,0,0,1,3.738,2.533,6.95,6.95,0,0,1,1.853,3.254,5.6,5.6,0,0,1-.32,3.491m7.446-17.558L58.29,127.2l-2.621,5.784,2.861,2.442-1.451,3.205L39.456,122.883,40.314,121l23.09,3.672Zm6.431-13.33-17.215-1.889,14.491,7.388-1.387,2.8L44.188,112.6l1.772-3.577L63.412,111,48.7,103.5l1.387-2.8,20.086,10.242Zm6.562-12.023a5.762,5.762,0,0,1-2.454,2.468,6.356,6.356,0,0,1-3.513.637,10.244,10.244,0,0,1-4.044-1.3L59.09,101.14a11.682,11.682,0,0,1-3.515-2.8,6.708,6.708,0,0,1-1.544-3.358,5.462,5.462,0,0,1,.656-3.414,5.24,5.24,0,0,1,2.09-2.117,6.64,6.64,0,0,1,3.1-.8,10.057,10.057,0,0,1,3.659.646l-1.679,3.1a3.232,3.232,0,0,0-1.363-.072,2.779,2.779,0,0,0-1.155.47,2.561,2.561,0,0,0-.786.881,2.485,2.485,0,0,0-.292,1.584,3.168,3.168,0,0,0,.751,1.575A5.74,5.74,0,0,0,60.7,98.165l5.85,3.184a4.406,4.406,0,0,0,1.811.567,2.81,2.81,0,0,0,1.588-.328,2.849,2.849,0,0,0,1.132-1.175A2.6,2.6,0,0,0,71.4,98.83a3.015,3.015,0,0,0-.723-1.554,5.734,5.734,0,0,0-1.7-1.33l-.327-.179L67.4,98.072l-3.6-1.961,2.857-5.281,3.872,2.109a11.705,11.705,0,0,1,3.52,2.807,6.728,6.728,0,0,1,1.552,3.361,5.468,5.468,0,0,1-.659,3.412m8.977-16.28-17.179-2.9,14.062,8.181L79.218,94.21,59.728,82.87l2.029-3.437,17.415,3.005-14.285-8.31,1.589-2.688,19.49,11.34ZM89.711,76.9l-1.088,1.689-.042.065-.638.991L68.785,67.739l.638-.993,0,0,5.644-8.77,3.479,2.165-4.513,7.016,4.425,2.751,3.8-5.914,3.478,2.163-3.8,5.914,4.3,2.67,4.515-7.016,3.478,2.163Zm9.767-14.21a5.96,5.96,0,0,1-2.783,2.26,6.3,6.3,0,0,1-3.629.181,12.571,12.571,0,0,1-4.2-1.9L76.876,55.271l1.874-2.677,12.079,8.019a5.032,5.032,0,0,0,2.964,1.009,2.726,2.726,0,0,0,2.185-1.254,2.611,2.611,0,0,0,.411-2.453,4.817,4.817,0,0,0-2.043-2.323L82.267,47.571,84.144,44.9l11.987,7.958a12.212,12.212,0,0,1,3.349,3.119,5.883,5.883,0,0,1,1.145,3.365,5.749,5.749,0,0,1-1.148,3.354m10.955-15.247L93.47,42.883l13.211,9.437L104.775,54.8,86.458,41.718l2.442-3.17,17.183,4.689L92.666,33.654l1.906-2.481,18.315,13.082Zm8.854-10.465a6.082,6.082,0,0,1-2.95,1.958,6.793,6.793,0,0,1-3.655.019,10.429,10.429,0,0,1-3.807-1.933l-5.253-4.054a11.2,11.2,0,0,1-2.982-3.291,6.222,6.222,0,0,1-.895-3.493,5.293,5.293,0,0,1,1.326-3.172,5.477,5.477,0,0,1,2.514-1.686,7.1,7.1,0,0,1,3.276-.242,10.441,10.441,0,0,1,3.55,1.237l-2.291,2.7a3.374,3.374,0,0,0-1.359-.3,2.963,2.963,0,0,0-1.25.256,2.658,2.658,0,0,0-.962.716,2.4,2.4,0,0,0-.6,1.474,2.987,2.987,0,0,0,.448,1.646,5.5,5.5,0,0,0,1.428,1.561l5.254,4.054a4.527,4.527,0,0,0,1.711.853,2.927,2.927,0,0,0,3.026-.988,2.5,2.5,0,0,0,.629-1.47,2.782,2.782,0,0,0-.42-1.616,5.569,5.569,0,0,0-1.445-1.568l-.294-.226-1.7,2.007-3.233-2.495,3.9-4.6,3.478,2.684a11.3,11.3,0,0,1,2.989,3.295,6.26,6.26,0,0,1,.9,3.5,5.305,5.305,0,0,1-1.327,3.175" transform="translate(5.026 3.9)" fill="#2ca8ec"/>
        <g id="그룹_71147" data-name="그룹 71147" transform="translate(97.946 217.197)" style="mix-blend-mode: normal;isolation: isolate">
          <g id="그룹_71146" data-name="그룹 71146">
            <g id="그룹_71145" data-name="그룹 71145" clip-path="url(#clip-path-3)">
              <path id="패스_69030" data-name="패스 69030" d="M61.1,124.6a1.423,1.423,0,0,0-.9-.416l-4.169-.381-.331,5.423,4.17.381a1.318,1.318,0,0,0,.923-.249,2.066,2.066,0,0,0,.665-.9,4.572,4.572,0,0,0,.313-1.409,4.392,4.392,0,0,0-.128-1.446A2.223,2.223,0,0,0,61.1,124.6" transform="translate(-55.708 -123.805)" fill="#2ca8ec"/>
            </g>
          </g>
        </g>
        <g id="그룹_71150" data-name="그룹 71150" transform="translate(168.571 221.826)" style="mix-blend-mode: normal;isolation: isolate">
          <g id="그룹_71149" data-name="그룹 71149">
            <g id="그룹_71148" data-name="그룹 71148" clip-path="url(#clip-path-4)">
              <path id="패스_69031" data-name="패스 69031" d="M95.877,134.443l4.253-.24-2.535-7.759Z" transform="translate(-95.877 -126.443)" fill="#2ca8ec"/>
            </g>
          </g>
        </g>
        <path id="패스_69032" data-name="패스 69032" d="M212.074,114.924C95.8,134.383,11.2,103.5,11.2,103.5l36.539,63.085c81.241,19.714,177.478,1.465,177.478,1.465ZM59.324,148.048a3.306,3.306,0,0,0,.837,1.6,2.689,2.689,0,0,0,1.535.753,2.154,2.154,0,0,0,1.361-.2,3.052,3.052,0,0,0,1.123-1.061,6.442,6.442,0,0,0,.809-1.858l3.451.56a13.812,13.812,0,0,1-1.69,4.082,6.526,6.526,0,0,1-2.474,2.351,4.91,4.91,0,0,1-3.077.447,6.224,6.224,0,0,1-3.337-1.56,6.66,6.66,0,0,1-1.851-3.268,12.92,12.92,0,0,1-.22-4.745l.723-6.284a12.4,12.4,0,0,1,1.285-4.5,5.9,5.9,0,0,1,2.525-2.568,5.755,5.755,0,0,1,3.567-.449,5.319,5.319,0,0,1,2.869,1.412,7.422,7.422,0,0,1,1.858,3.054,14.551,14.551,0,0,1,.691,4.467l-3.451-.56a7.137,7.137,0,0,0-.378-2.033,3.659,3.659,0,0,0-.842-1.389,2.253,2.253,0,0,0-1.245-.633,2.508,2.508,0,0,0-1.649.237,2.906,2.906,0,0,0-1.169,1.288,6.617,6.617,0,0,0-.61,2.235l-.724,6.284a6.8,6.8,0,0,0,.083,2.34m24.708-9.47-8.538-1.067-.462,5.312,7.2.9-.362,4.174-7.2-.9-.447,5.156,8.536,1.068L82.4,157.4l-10.671-1.335-1.208-.151,2-22.993,3.341.418,8.538,1.068Zm14.7,20.354-4.06-.37-3.443-9.644-2.031-.186-.566,9.279-3.349-.307,1.407-23.073,3.349.305v0l4.438.405a4.229,4.229,0,0,1,2.528,1.093,5.713,5.713,0,0,1,1.575,2.574,10.02,10.02,0,0,1,.39,3.679,9.734,9.734,0,0,1-.832,3.568,5.268,5.268,0,0,1-1.876,2.261,4,4,0,0,1-1.2.518ZM112.8,140.846l-4.847-.3-.728,18.9-3.355-.211.726-18.9-4.847-.3.162-4.193,13.051.809Zm4.4,19.084-3.479-.144.529-23.117,3.479.146Zm15.419-18.545-8.346-.168-.037,5.549,7,.142-.028,4.2-7-.142-.062,9.179-3.356-.07.153-23.126,3.086.063,8.619.175Zm2.161,18.9-.234-23.129,3.481-.007.232,23.131Zm18.21-3.712a6.942,6.942,0,0,1-2.1,2.782,5.025,5.025,0,0,1-2.97,1.012,5.909,5.909,0,0,1-3.506-.925,6.288,6.288,0,0,1-2.287-2.886,12.776,12.776,0,0,1-.89-4.649l-.176-6.346a12.763,12.763,0,0,1,.629-4.689,6.286,6.286,0,0,1,2.124-3,5.849,5.849,0,0,1,3.45-1.105,5.071,5.071,0,0,1,3.028.865,6.982,6.982,0,0,1,2.261,2.674,14.135,14.135,0,0,1,1.315,4.288l-3.478.086a6.967,6.967,0,0,0-.661-1.942,3.412,3.412,0,0,0-1.027-1.214,2.133,2.133,0,0,0-1.317-.4,2.553,2.553,0,0,0-1.589.539,3.091,3.091,0,0,0-.971,1.488,6.832,6.832,0,0,0-.285,2.325l.176,6.345a6.7,6.7,0,0,0,.413,2.3,3.138,3.138,0,0,0,1.05,1.432,2.6,2.6,0,0,0,1.621.46,2.186,2.186,0,0,0,1.31-.454,3.269,3.269,0,0,0,.958-1.256,6.838,6.838,0,0,0,.533-1.986l3.479-.086a14.282,14.282,0,0,1-1.087,4.346m13.883,2.719-1.192-3.647-6.516.368-.807,3.758-3.61.2,5.6-23.485,2.129-.121,8,22.719Zm10.966-.868-3.346.289-1.407-18.879-4.837.414-.311-4.186,13.018-1.118.311,4.186-4.835.416Zm9.955-1-1.537.179-.594.07-1.206.14L182.2,134.8l2.143-.249,9.718-1.137.41,4.177-8.524,1,.522,5.316,7.186-.84.41,4.177-7.186.842.508,5.16,8.524-1,.411,4.177-8.526,1Z" transform="translate(8.492 78.074)" fill="#2ca8ec"/>
        <g id="그룹_71153" data-name="그룹 71153" transform="translate(201.275 75.293)" style="mix-blend-mode: normal;isolation: isolate">
          <g id="그룹_71152" data-name="그룹 71152">
            <g id="그룹_71151" data-name="그룹 71151" clip-path="url(#clip-path-5)">
              <path id="패스_69033" data-name="패스 69033" d="M120.415,49.978l.044-.026a3.733,3.733,0,0,0,1.2-1.056,2.1,2.1,0,0,0,.4-1.247,2.588,2.588,0,0,0-.427-1.34l-2.108-3.391-5.039,3,2.106,3.389a2.394,2.394,0,0,0,1.644,1.2,3.208,3.208,0,0,0,2.185-.53" transform="translate(-114.477 -42.919)" fill="#2ca8ec"/>
            </g>
          </g>
        </g>
        <g id="그룹_71156" data-name="그룹 71156" transform="translate(213.642 89.038)" style="mix-blend-mode: normal;isolation: isolate">
          <g id="그룹_71155" data-name="그룹 71155">
            <g id="그룹_71154" data-name="그룹 71154" clip-path="url(#clip-path-6)">
              <path id="패스_69034" data-name="패스 69034" d="M123.748,56.763l6.131-6.01-8.367,2.135Z" transform="translate(-121.512 -50.753)" fill="#2ca8ec"/>
            </g>
          </g>
        </g>
        <g id="그룹_71159" data-name="그룹 71159" transform="translate(210.115 70.357)" style="mix-blend-mode: normal;isolation: isolate">
          <g id="그룹_71158" data-name="그룹 71158">
            <g id="그룹_71157" data-name="그룹 71157" clip-path="url(#clip-path-7)">
              <path id="패스_69035" data-name="패스 69035" d="M124,40.1l-4.492,2.674,2.108,3.389a2.118,2.118,0,0,0,1.512,1.07,3.133,3.133,0,0,0,2.057-.528,2.556,2.556,0,0,0,1.254-1.442,2.137,2.137,0,0,0-.331-1.774Z" transform="translate(-119.506 -40.104)" fill="#2ca8ec"/>
            </g>
          </g>
        </g>
        <path id="패스_69036" data-name="패스 69036" d="M128.95,6.439,88.9,43.819c73.785,91.756,88.073,180.505,88.073,180.505l37.337-62.616C191.9,81.336,128.95,6.439,128.95,6.439m3.4,72.932-3.332-5.358-.816-1.314L149.14,60.243l1.551,2.493,2.481,3.989a5.824,5.824,0,0,1,.969,3.035,4.791,4.791,0,0,1-.911,2.819,8.525,8.525,0,0,1-2.706,2.389,6.9,6.9,0,0,1-2.393.921,4.431,4.431,0,0,1-4.079-1.339,4.223,4.223,0,0,1,.276,2.3,4.648,4.648,0,0,1-1,2.154,7.969,7.969,0,0,1-2.192,1.837l-.042.025a8.722,8.722,0,0,1-3.437,1.26,5.078,5.078,0,0,1-2.991-.514,5.97,5.97,0,0,1-2.31-2.24m9.976,16.842,2.88-2.823-3.427-5.938-3.93,1-1.9-3.289,24.822-5.737,1.118,1.94L144.227,99.5Zm8,13.014a6.333,6.333,0,0,1-2.681-2.767,6.269,6.269,0,0,1-.8-3.756,6.541,6.541,0,0,1,1.646-3.505,13.445,13.445,0,0,1,3.959-2.995L166.2,88.93l1.661,3.11-13.856,7.328a5.357,5.357,0,0,0-2.47,2.281,2.839,2.839,0,0,0,.123,2.686,2.891,2.891,0,0,0,2.175,1.623,5.355,5.355,0,0,0,3.284-.754l13.855-7.328,1.658,3.11-13.751,7.274a13.377,13.377,0,0,1-4.714,1.582,6.6,6.6,0,0,1-3.842-.616m4.819,11.916a6.269,6.269,0,0,1-.629-3.714,6.932,6.932,0,0,1,1.637-3.507,11.1,11.1,0,0,1,3.668-2.77l6.446-3.188a12.512,12.512,0,0,1,4.65-1.36,7.185,7.185,0,0,1,3.91.73,5.874,5.874,0,0,1,2.583,2.71,5.713,5.713,0,0,1,.552,3.174,7.219,7.219,0,0,1-1.243,3.249,10.907,10.907,0,0,1-2.85,2.837l-1.67-3.423a3.505,3.505,0,0,0,.918-1.165,3.021,3.021,0,0,0,.308-1.314,2.8,2.8,0,0,0-.281-1.246,2.658,2.658,0,0,0-1.2-1.249,3.419,3.419,0,0,0-1.855-.318,6.126,6.126,0,0,0-2.214.658l-6.449,3.189a4.78,4.78,0,0,0-1.626,1.249,3,3,0,0,0-.383,3.346A2.8,2.8,0,0,0,160.6,120.3a3.209,3.209,0,0,0,1.811.33,6.2,6.2,0,0,0,2.228-.67l.36-.179-1.241-2.544,3.966-1.961,2.845,5.828-4.267,2.109a12.579,12.579,0,0,1-4.661,1.365,7.19,7.19,0,0,1-3.917-.725,5.87,5.87,0,0,1-2.581-2.714m4.485,8.868,22.058-10.352,1.516,3.326-22.062,10.352Zm12,16.494-4.039,1.8-3.516-8.3-1.377-3.247,22.259-9.907,1.375,3.247-18.215,8.109Z" transform="translate(67.405 4.857)" fill="#2ca8ec"/>
      </g>
    </g>
  </g>
</svg>
